<?xml version="1.0" encoding="utf-8"?>
<!-- Generator: Adobe Illustrator 16.0.0, SVG Export Plug-In . SVG Version: 6.00 Build 0)  -->
<!DOCTYPE svg PUBLIC "-//W3C//DTD SVG 1.1//EN" "http://www.w3.org/Graphics/SVG/1.1/DTD/svg11.dtd">
<svg version="1.1" id="_x3C_Vrstva_x3E_" xmlns="http://www.w3.org/2000/svg" xmlns:xlink="http://www.w3.org/1999/xlink" x="0px"
	 y="0px" width="1779.178px" height="321.032px" viewBox="29.227 401.306 1779.178 321.032"
	 enable-background="new 29.227 401.306 1779.178 321.032" xml:space="preserve">
<g>
	<path fill="#072322" stroke="#000000" stroke-width="0.75" stroke-miterlimit="10" d="M361.448,412.609
		c1.219,0.609,3.047,1.219,3.657,2.438l1.219,0.609l1.219,2.438l-0.609,4.876v1.219v1.219l-0.61,0.61v0.609
		c-0.609,1.828-1.219,4.267-1.829,6.704v1.829l-1.219,3.048l-0.61,3.656l-0.609,1.22l-0.609,2.438l-1.219,1.829l-1.219,3.048
		l-3.048,4.876l0,0l-0.609,1.219l-0.61,3.048l0.61,0.609h-0.61l-1.219,0.609v0.609l-1.219,3.657l-0.609,0.609l-6.095,14.02
		l-1.219,3.657v0.609l-0.609,0.609l-2.438,1.219c-0.61,1.829-1.829,3.657-2.438,6.096l-0.61,1.219l-4.267,8.533l-0.609,1.22
		l-0.61,1.828l-0.609,0.609v1.22l-0.609,0.609l0.609,1.219v0.609l-1.219,0.609l-0.61,1.22l-3.047,3.047l0,0l-6.095,10.972v1.829
		l-2.438,3.047l-0.609,0.61l-0.609,3.656l-0.61,1.22l-1.219,2.438l-1.219,1.829l0.61,0.609h1.219h0.609h1.829l1.219-0.609h1.829
		h1.829l1.829,0.609h1.829l0,0h1.829h0.609l0,0l0,0l0,0h0.609h1.219l0,0l0,0h1.829l0,0h0.609h1.219c1.219,0,2.438,0,3.657,0
		c1.828,0,3.047,0.609,4.876,0.609h0.609h1.219h1.219l1.829,0.609h0.61h1.829h0.609l2.438,0.609h1.219h1.828h1.219h0.61h0.609h0.609
		c0.609,0,1.219,0,2.438,0h1.829h0.609h0.61h1.219l1.828,0.61h0.61c0.609,0,0.609,0,1.219,0l0,0h1.829h1.219h0.609l0,0h2.438
		c1.219,0,3.048,0.609,4.876,0.609c0,0,0,0,0.609,0h0.609l0.61,0.609v1.219h-1.219l-1.219-0.609h-1.219l-1.829,1.219l0,0
		l-4.267-0.609h-1.829c-4.267-0.609-8.533-0.609-12.19-0.609h-0.609h-2.438c-1.829,0-4.267,0-6.095,0h-3.047l0,0h-7.314h-1.829
		h-1.219l0,0h-1.219h-1.829l-1.219-0.609h-3.657h-1.219h-3.048h-1.828h-11.581l-1.829,1.828l-4.267,9.753l-4.876,9.752
		c-0.609,3.048-2.438,6.096-3.657,9.144c-0.609,1.219-1.828,2.438-2.438,3.656l-7.924,14.629c-0.609,1.219-1.219,2.438-1.829,3.657
		l-1.828,3.048c-1.219,3.048-2.438,5.485-4.267,8.533v0.609l-1.219,1.219l-1.219,3.048l-1.829,4.267l-1.219,3.657l-0.609,0.609
		l-1.219,1.829l-3.048,7.314c-0.609,1.828-1.219,2.438-1.219,3.047v0.609l-0.61,0.61l-2.438,6.095h-0.609l-1.219,3.657l-0.609,3.048
		v0.609l-1.219,3.657l-1.219,1.828l-1.219,3.048l-0.609,0.609v1.22l-1.829,4.876c0,1.828-1.219,3.657-1.829,5.485
		c-0.61,2.438-1.829,4.876-1.829,6.705l-0.609,1.828c-0.61,5.486-2.438,10.362-4.267,15.238c-0.61,3.048,0,5.485-0.61,8.533
		c-1.219,1.22-1.219,3.048-2.438,4.267c-1.219,0.609-3.048,3.048-4.267,1.22c-1.219-4.267,1.829-8.534,3.047-12.801
		c1.219-3.657,3.657-6.704,3.657-10.971l1.829-5.486c1.829-6.704,3.657-12.8,6.095-19.505l1.219-4.876l3.047-6.705l2.438-6.704
		l1.219-2.438l4.876-9.752l1.828-4.267l1.829-4.267l0.61-1.22c0-0.609,0-0.609,0.609-1.219l3.047-6.705l0.61-1.219v-1.219
		l1.219-1.829l0.61-0.609c0-0.609,0-0.609,0.609-0.609c0-1.219,0.609-1.828,0.609-3.048h0.61c1.828-4.267,4.267-7.924,5.485-11.581
		c2.438-4.267,4.876-9.143,7.314-14.019c1.829-4.267,1.829-4.267,4.267-8.533l1.829-4.877l1.219-2.438l1.828-3.657l1.219-2.438
		l2.438-2.438c0.61-1.829,1.829-3.657,3.048-4.877c-3.657,1.22-6.705,1.22-10.362,1.829c-1.829-0.609-4.267-0.609-6.095-0.609
		l-17.676,1.219c-1.219,0.609-3.048,0.609-4.267,0l0,0c-3.048,1.219-5.486,0.609-8.534,0.609h-0.609c-3.047,0-4.267,0-4.876,0
		h-3.657l-15.848,1.829v0.609l-3.657,0.609l-4.876,0.609l-3.657,0.609h-3.048h-1.828c-12.8,1.829-25.6,3.657-37.791,5.486l0,0
		l-5.486,1.219l-3.048,0.609h-4.876l-6.095,0.609l-6.705,7.314c-4.267,6.096-10.362,12.8-15.848,17.677l-2.438,3.047
		c0,2.438-2.438,4.267-3.047,6.705c-1.219,0-2.438,1.219-3.657,2.438l-7.924,10.361c-0.609,1.22-2.438,1.829-3.048,3.657
		c-3.657,3.048-5.485,6.096-8.533,9.753l-3.047,3.047l-0.61,2.438l-1.219,2.438l-1.829,1.828l-1.219,0.609l-1.219,1.219l-0.61,2.438
		l-1.829,1.219l-1.829,3.048v1.829l-0.609,1.219l-1.219,1.219l-0.61,1.22c0,0.609,0,0.609,0,1.828
		c-2.438,6.705-5.486,9.143-10.362,14.019l-5.486,5.486L78.019,668H77.41l-0.61,0.609l-1.828,1.829l-1.219,0.609h-1.219
		l-0.609-0.609l-0.609-1.22V668l0,0v-0.609v-1.219v-0.61v-0.609v-1.219l0.609-1.219v-0.609l0.609-0.61v-0.609h-0.609l0,0l0,0
		l0.609-0.609v-0.609v-1.828l0.61-1.829V655.2l0.609-0.609l0.609-1.219l-0.609-0.61l0,0h0.609l1.219-1.219h0.609H76.8l0.61-0.609
		h0.609l0.609-0.609l1.829-1.829l1.219-3.047l0.609-0.61v-0.609l0,0l0,0l0,0l0.61-1.828l1.219-1.829l0.609-0.609l1.829-1.828
		l1.829-0.609l4.876-6.705l4.267-2.438l5.486-7.314l1.219-1.219l1.219-1.828v-1.22l1.829-1.828l1.828-1.829l3.048-2.438l1.219-2.438
		l1.829-1.219l1.828-2.438l0.61-0.609l1.829-3.048l1.829-1.828l1.829-2.438c1.219-1.219,2.438-3.048,3.657-4.267l2.438-3.048
		l0.609-1.219l0.609-0.609l0.61-1.219l1.828-1.829l2.438-3.657l0.609-0.609l5.486-6.095l1.219-2.438l1.219-0.609l3.047-3.048
		l1.219-1.828l1.219-0.61l3.047-3.656l0,0l-12.19,1.828l-1.829,0.609l-4.267,0.609l-4.876,0.609l-8.534,1.829l-6.095,2.438
		c-3.657,1.22-7.924,1.22-11.581,3.048c-7.314,0-14.629,3.048-21.943,5.486l-1.219-0.61c-3.048,3.657-6.705,6.096-11.581,6.096l0,0
		c-0.609,1.828-1.219,3.657-1.829,5.485c-2.438,2.438-6.095,3.657-9.143,1.829l-1.219-1.22l0.609-1.219v-0.609
		c-2.438,1.219-4.876,1.828-7.314,0.609c0,0.609-1.219,0.609-1.829,0l1.219-3.048c0-0.609,0-0.609,0.61-1.219
		c1.219-1.828,3.657-3.657,6.095-4.876l4.267-1.219l2.438-1.829l1.219,0.609c6.705-2.438,14.628-4.876,22.552-6.704l0.609-0.61
		l3.048-1.219l1.219-0.609h3.048l2.438-0.609l0.609-0.609h0.61c4.876-1.22,9.752-1.829,15.238-3.048l1.829-0.609l4.267-1.219
		l2.438-1.22h1.219H128h1.829c10.971-1.828,21.333-3.048,28.647-4.267l1.219-1.219l1.219-0.609l1.219-1.829l1.829-2.438l4.267-3.657
		l5.486-6.096l4.876-4.267l0.61-1.219l5.485-4.267l2.438-2.438l0,0l3.047-4.876l4.876-4.267l1.219-1.219l5.486-3.657l1.219-1.22
		l3.047-1.219l5.486-4.876l0.609-0.609l1.829-1.829l2.438-1.219l0,0l1.829-3.048l1.219-0.609l1.829-1.219l1.829-1.22l6.705-6.095
		l3.657-3.048l1.829-1.219c1.828-1.22,3.657-3.048,5.485-4.876v-0.61l1.219-0.609l0.609-1.219l1.219-1.219l0.609-0.61l1.829-0.609
		l0.609-0.609l1.829-1.219l5.486-4.876l0.609-0.609l0.61-0.61l0.609,0.609l0.609-0.609l0.61-0.609h0.609l0.609-0.609
		c1.829-1.219,4.267-3.048,6.095-4.876l0.609-0.609l2.438-1.22l1.829-2.438l3.047-1.829l3.657-2.438l0.609-0.609l1.219-1.829
		l0.609-0.609l1.829-1.828l0.609-1.22l0.61-0.609h1.829l1.219-0.609l0,0l5.486-4.267l1.219-1.219l1.219-0.61l1.829-1.219
		l2.438-1.219l1.219-0.609l1.219-1.22l3.047-1.219l0,0l4.876-3.048l0.609-0.609l0.609-0.609h0.609l0,0l0,0
		c1.219-1.219,3.048-1.829,4.267-3.048l1.219-1.219l1.219-1.219l1.829-1.22L320,424.19l1.219-1.219l1.219-0.609l1.829-0.61
		c1.829-1.219,4.267-2.438,6.095-3.656l1.829-0.61l3.657-1.828l1.219-0.609h0.61l0,0l3.047-1.22l1.219-1.219l1.829-0.609h1.219h0.61
		h1.829l0.609-0.609h3.048l1.219-0.609l1.219,0.609h0.609l1.219-0.609h0.609v0.609c1.829,0,3.657,0,4.876,0.609L361.448,412.609
		L361.448,412.609z M249.905,482.096c-1.219,1.219-2.438,1.828-3.657,3.047h-0.609c-1.219,1.829-3.657,3.048-4.267,4.877
		l-3.657,1.828l-1.219,0.609l-1.219,1.829h-0.61c-5.485,4.267-10.362,8.533-15.848,12.19c-1.219,1.828-3.657,3.657-5.485,5.485
		c-0.61,1.219-0.61,1.828-1.829,2.438h-1.219c-3.047,4.267-7.924,6.704-10.971,11.581l-4.876,4.876h-0.609
		c-1.219,1.828-3.048,3.047-3.657,4.876c-4.267,3.048-7.924,6.705-11.581,10.362c-3.657,3.656-7.924,6.095-10.971,10.971
		l9.752-1.219h0.609l4.267-1.219h5.486l5.486-1.22h2.438l3.657-0.609h4.267h1.219c3.657-0.609,6.705-0.609,9.752-1.219l0.61-0.609
		l2.438-0.609h3.047l4.876-1.22h1.829h2.438h1.219h1.828h0.61l20.724-2.438l3.048-0.609l3.657-1.22l1.219-0.609h1.829h2.438h1.219
		h1.829h7.314l3.048-0.609v-0.609l0.609,0.609l1.219,0.609l4.267-0.609h1.219l0.609,0.609c1.829,0,4.267,0,6.095-0.609l1.219-0.609
		h0.609l0.609,0.609l4.876-0.609h0.61h3.047h1.829h1.829l0.609-1.22l1.219-1.828l0.609-0.609l1.829-3.048l1.219-3.048l0.609-0.609
		v-0.609l0.61-0.609l1.828-4.267l1.219-2.438l0.609-1.219v-1.219l1.219-1.829l0.609-1.828l0.609-0.609h0.61v-0.61l1.219-1.219
		v-1.219l1.219-2.438l4.876-10.361l3.657-6.096l0.609-1.828l3.657-6.096v-1.219l0.61-0.609v-0.61l0.609-1.219l1.219-1.219
		l1.828-3.048l0.61-0.609l4.267-9.752v-0.61l0.609-0.609l2.438-5.485c1.219-2.438,2.438-5.485,3.048-7.924l2.438-5.485
		c1.829-1.829,1.219-5.486,3.048-7.924c-0.61-1.22,0-3.048,0-4.268c1.219-1.828,1.219-4.267,3.047-6.095l-0.609-1.219l-2.438-3.048
		v-1.219l0.609-1.22v-1.828l0.61-1.22l-0.61-1.828v-1.828l-0.609-1.22c-1.219-0.609-1.829-1.219-3.048-1.219l-4.876,1.828
		l-6.705,3.048h-1.829l-2.438,0.609l-3.657,0.609l-2.438,0.61l-1.219,0.609l0,0l-5.486,3.048l0,0l-1.219,0.609l-5.485,3.047
		l-0.61,1.22l-1.829,0.609l-1.828,0.609h-0.61l-4.876,3.048l-1.219,0.609l-1.219,1.219l-2.438,1.22l-11.581,7.924l-0.61,1.219
		l-1.829,0.609l-4.267,3.657l-0.609,0.609h-0.609l-2.438,1.828l-2.438,1.829l-6.095,4.876l-1.219,1.829l-1.219,0.609l-1.219,0.609
		h-0.609l-0.609,0.609l-1.219,1.219l-1.829,1.22c-0.609,1.219-1.829,2.438-3.047,1.828l-6.095,6.096l-2.438,1.828l-1.829,1.829
		l-1.219,1.219L249.905,482.096L249.905,482.096z"/>
	<path fill="#072322" stroke="#000000" stroke-width="0.75" stroke-miterlimit="10" d="M455.924,588.762l-0.609-1.219l-0.609-0.609
		c-0.609-0.609-0.609-1.829-0.609-3.657v-0.609l0.609-1.829l1.219-3.048l1.219-1.828l1.22-1.219l1.828-1.829l1.829-3.047
		l1.828-1.829l0.609-0.609v-0.609l1.829-2.438l0.609-1.219l0.609-1.219v-0.61l-0.609,0.61h-0.609l-1.829,0.609h-0.609l-4.876,3.047
		l-1.829,1.22l-1.219,1.219l-1.219,0.609l-1.829-1.219l-4.267,2.438l-0.609,1.22l-2.438,1.828l-1.219,0.609l-3.657,2.438
		l-4.267,3.048l-0.609,0.609l-0.609,1.219l-1.219,0.609h-0.61c-0.609,0.609-1.828,1.22-2.438,1.829l-1.219,0.609l-1.22,0.609
		l-1.828,1.829l-1.22,0.609c-3.047,1.828-6.095,3.657-7.313,3.657l0,0l0,0h-1.22l-0.609-0.61l-1.828-0.609l-1.22-2.438
		c-0.609-1.22-0.609-3.048,0-5.486l0.61-4.267v-1.219l1.219-1.829l0.609-0.609l1.828-3.657l0.61-0.609l3.656-4.267l1.22-1.828
		l0.609-0.609v-0.609l1.828-2.438l0.609-1.219l0.61-1.22l4.267-7.314l4.267-6.095l3.048-3.657l4.267-4.876h-3.048l-4.267-0.609
		h-0.609h-0.61l0,0l-3.656,1.828l-2.438,1.829l-7.314,3.656l-1.219,1.22l-7.314,4.876l-4.267,1.828h-0.609l-1.219,1.22l0,0
		l-0.61,0.609l-6.095,4.267l-2.438,1.828l-1.828,1.829l-4.267,3.657l-3.048,1.828c-2.438,2.438-3.048,2.438-3.657,3.048
		l-1.219,2.438l-0.609,0.609l-1.829,1.828l-1.829,0.609l-0.609,1.22h-0.609l-0.61,0.609h-0.609l-0.609,1.219h-0.609l-5.486,4.876
		v0.609l-1.219,0.61l-0.609,0.609h-0.609l-3.048,2.438l-1.219,1.22l0,0l-2.438,1.828v0.609h-0.609h-0.609l-1.829,2.438l-2.438,1.828
		l-1.219,2.438v0.609l-1.829,1.829l-1.219,1.828l-1.219,1.829l-0.61,1.219L346.819,604h-0.61l0,0v0.609v0.609l-1.219,0.609v0.61
		v0.609l-0.609,0.609v0.609l-0.609,0.609l0,0h-0.609h-0.61l-1.219,0.609l0,0l0,0l-1.219,0.61l-2.438,0.609h-0.61l0,0l-1.828,0.609
		h-1.219H332.8v-1.219l-1.219,0.609h-0.609l-0.61-1.22l-0.609-0.609v-1.828l0.609-1.829l0.61-0.609l0,0V604l1.219-0.609l0.609-1.219
		l2.438-4.268l4.267-4.876l0,0v-0.609h0.609l2.438-3.657l1.219-1.828l1.219-1.829l0.61-0.609l0.609-0.609l1.219-1.828v-0.61
		l1.219-0.609l0.61-1.219l1.219-1.828l3.657-5.486l1.219-1.219l0.609-1.219l4.267-4.877l1.219-1.828l3.657-4.876l2.438-3.657
		l0.609-1.22l0.609-1.828l0.61-1.219l1.219-0.609l1.219-0.61l0.609-1.219l0.609-0.609v-0.609v-0.609l0.61-0.609v-2.438l0.609-1.22
		l0,0l0,0l0,0l0.609-0.609v-0.609h0.61l0,0l1.219-1.219h0.609l1.829-3.048l1.219-1.219l0.609-1.829h-0.609l1.219-1.219l0.609-0.609
		l0.609-0.609l0,0l0,0l0,0l0,0v-1.829l0.61-1.828l0.609-2.438l1.219-1.828l1.829-1.22l0.609,0.61v-0.61l0.609-0.609h0.609
		l0.61-0.609h1.219h2.438h1.219l1.219,0.609l0.609,0.609v1.22l-1.219,1.828l0,0l-0.609,1.219l-1.829,4.268l-2.438,2.438
		l-2.438,1.829l0,0l-2.438,3.657v0.609L384,540v1.219l-0.609,1.829l-0.609,0.609l-0.61,0.609l0,0h-0.609v0.609h-0.609v0.609
		l-0.61,0.609l-1.219,1.22l-1.829,2.438l-1.219,1.829l-0.609,1.828l-0.609,0.609l-3.048,2.438l-2.438,3.048l-1.219,0.609
		l-2.438,3.048v0.609l-1.219,1.219l-1.829,3.048l-0.609,1.828l-0.609,1.22l-1.219,1.828v0.609l-1.829,1.22l-1.829,2.438
		l-2.438,3.657l-2.438,3.657l-1.829,3.048l-3.657,5.485l-1.219,3.657l-0.609,0.609l0,0h0.609l0.61-0.609h0.609h0.609l0.61-0.609
		l1.219-0.609v-1.219l1.219-1.22l1.219-0.609l1.828-0.609l1.829-1.219l1.829-1.829l0.609-0.609h0.61l1.219-1.219l2.438-2.438
		l4.876-4.267l1.829-1.219l4.267-3.657l1.219-1.219l0.609-0.61l1.219-0.609l3.047-1.828l1.219-1.829h0.609l3.048-1.828l1.828-1.829
		l1.219-0.609v-0.609l4.267-3.657l1.219-0.609l2.438-1.828l0.609-0.61l1.219-0.609l1.828-1.828l1.829-1.219l1.828-2.438l5.486-4.267
		l1.828-1.219l1.22-1.22l3.656-1.828l3.048-1.829l0.609-1.219h0.609l0.61-0.609h0.609l1.219-1.219l0.609-0.61l1.22-0.609
		l1.828-1.219l2.438-1.219l3.047-1.829l0.61-0.609l3.047-1.828l6.096-1.22l4.876-1.828l1.829-0.609l1.219-0.609l0.609-0.61h0.609
		h0.609l-0.609,0.61h1.829h0.609l1.219,1.828l-0.609,1.829l-0.609,0.609c-1.22,2.438-3.657,5.485-5.486,7.314
		c-0.609,0.609-0.609,0.609-1.219,1.219L442.515,540l-1.22,1.829l-2.438,3.047l-2.438,3.048l-0.609,0.609l-1.829,1.829l-5.485,9.143
		l-3.048,4.267l-1.828,4.876l0,0l0,0l-2.438,4.876l-0.609,3.048l-0.609,0.609l-0.609,0.609l-0.609,1.22v0.609v1.219l0.609,1.829
		v1.219l0.609,0.609v0.609l0,0l3.048-1.219h0.609c1.219-0.609,2.438-1.829,4.267-3.048l1.219-1.219l1.22-0.609
		c1.828-1.22,3.047-3.048,4.876-4.267l2.438-1.829l1.22-1.219l4.876-3.657l9.143-6.705l0.609-1.219l0.61-0.609l1.219-0.609h1.828
		c0.609-0.609,0.609-0.609,1.22-0.609l0.609-0.61v-0.609l0,0l0.609-0.609v-0.609l0,0l1.219-0.609l0,0l0,0h0.609h0.609l0.61-0.609
		h0.609l1.828-0.609h1.22l1.219-0.61h0.609l0,0h1.219l0,0h1.22l1.219,0.61l0.609,0.609v1.219l0,0l0,0l-0.609,0.609l-1.219,3.657
		v0.609l-1.22,2.438l-1.828,2.438l-1.219,3.048l-0.61,1.219l-1.219,1.829l-2.438,3.048l-0.61,1.219l-1.219,1.828l-0.609,1.829
		l-0.609,1.828l0.609,2.438l1.219,1.219c1.829,0.609,4.267,1.22,7.314,0.609h1.219l0,0h0.61l0,0l0.609-0.609h2.438l1.829-0.609
		l1.219-0.609l1.219,0.609l0.61-0.609l0,0h1.219l4.267-2.438l3.048-1.828h1.219l1.219-1.219h0.609l3.048-1.829h1.219l1.22-0.609
		l3.047-1.219l3.048-1.22l6.096-3.047l0.609-0.609l7.314-3.657l0.609-0.61l3.048-1.219l1.219-0.609l3.047-1.828l1.22-1.22h0.609
		l0.609,1.22v0.609l-1.219,0.609h-0.609l-1.22,0.609l-0.609,0.609l-0.609,0.609h-1.219l-6.096,4.267l-1.828,1.22h-0.609
		l-2.438,1.219l-1.828,1.219l-1.22,0.609l-0.609,0.61h-0.609l-3.657,1.828l-1.219,0.609l-1.219,0.609l-1.22,0.609l-0.609,0.61
		l-0.609,0.609l-1.828,1.219h-0.609l-1.22,0.609l-0.609,0.609l-1.828,0.609l-3.048,1.22l-3.657,1.828l-1.829,1.22h-0.609
		l-1.828,0.609c-0.609,0-1.219,0.609-1.829,0.609h-0.609h-1.219l-2.438,0.609l0,0h-0.609l-1.219,0.609h-1.219h-1.22
		c-1.219,0.609-3.048,0.609-4.267,0.609h-1.828c-0.609,0-1.829,0-2.438-0.609h-0.609H455.924z"/>
	<path fill="#072322" stroke="#000000" stroke-width="0.75" stroke-miterlimit="10" d="M582.096,573.523L582.096,573.523
		l0.609-1.219l3.657-4.876l0.609-1.829l0.609-0.609v-0.609l0.609-0.609l2.438-2.438l0.609-1.219v-0.609l0,0l0.609-1.829l0,0h-1.219
		H588.8l-2.438,0.61l-6.095,2.438l-1.219,0.609h-1.22l-6.095,3.657l0,0l-1.829,1.22l-0.609,1.219l-1.219,0.609l-4.876,2.438
		l-4.876,3.047l-1.829,0.61l-3.048,1.828l-1.219,0.609l-2.438,1.219l-1.22,0.61l-3.657,2.438l-1.219,0.609l-1.219,1.22l-1.829,0.609
		l-1.828,0.609l-4.876,3.048l-0.61,0.609l-3.047,0.609l0,0l0,0h-1.829l-2.438,1.219h-1.829c-0.609,0.609-1.219,0.609-1.828,0.609
		l-0.61,0.61l-4.267,1.219h-0.609l-3.048,1.219h-0.609h-0.609H512h-1.219l0,0c-3.657,0.609-6.096,0-6.705-2.438
		c-0.609-2.438,0-6.096,1.219-9.144l0.609-2.438h0.61V578.4l0.609-1.22l0.609-0.609h0.609l0,0l0.609-1.219l1.22-1.829l2.438-1.828
		l0.609-0.609l1.829-2.438l0.609-1.219l1.828-1.219l2.438-1.829l9.752-8.533l0,0l0,0l2.438-2.438l0.609-0.609l3.657-3.048
		l1.829-1.219l5.485-4.267l0,0l2.438-2.438l1.219-1.219l0.609-1.219h0.609h1.22l0.609-0.609l1.219-0.609h0.609h1.219l0.609-0.61
		v-0.609l1.829-0.609l6.705-3.657l1.219-1.219l0.609-0.609l1.829-0.609h0.609h0.609l1.828-0.61h0.609l1.22-0.609h1.219l1.219-0.609
		l1.22-0.609h0.609l1.828,0.609h1.219h1.22h0.609h0.609l0,0h0.609l0.609,0.609v0.609h0.61l0.609,1.22v1.828l-0.609,0.609
		c0,0.609-0.61,1.22-2.438,2.438c-0.609,0.609-1.22,0-1.22,0l-1.219,1.219h-1.219h-3.657l-3.657-0.609l0,0h-0.609l0,0h-0.609h-1.219
		h-1.219l-3.048,1.219l-3.657,1.22l-4.876,1.828l-3.657,2.438c-1.22,0.609-2.438,1.219-3.657,2.438l0,0l-1.829,1.22l0,0h-0.609
		l-9.752,6.704l-0.609,1.829l-1.829,1.828l-1.828,1.829l-1.22,0.609l-1.828,1.219l-0.609,0.609l-1.829,1.829l-0.609,0.609
		l-0.609,0.609l-2.438,3.048l-0.609,0.609l-0.609,0.609l-0.609,0.609l-0.609,0.609l-0.609,0.61l0,0l-0.61,1.219l-0.609,1.219
		l-0.609,0.609l-1.219,1.22l-1.22,1.219L512,578.4v0.609v1.219v0.609v0.609l-0.609,0.609l-0.609,0.61l-0.609,0.609l-1.22,1.219
		l-0.609,1.219l0,0v0.61v1.219l0.609,0.609l0.61,1.219l0.609,0.609l4.267-1.828l1.828-0.609l3.048-1.219l0,0h1.219
		c3.048-1.22,5.486-2.438,8.533-3.657l1.22-0.609l1.219-0.61l1.219-0.609h1.829c2.438-1.219,4.876-1.828,7.314-3.657l1.219-0.609
		l1.219-0.609l0,0h0.609l0.609-0.609h0.609l3.048-1.219l1.829-0.61l1.219-0.609l5.485-3.047l1.22-1.22l6.095-2.438l1.22-0.61
		l3.656-1.828l1.829-1.219l3.657-1.829l1.219-0.609l1.828-1.219l1.22-0.609l2.438-1.829l3.048-1.828l6.705-1.22h2.438l1.829,0.61
		l1.219,0.609l0.609,0.609c0.61,0,1.22,0.609,1.829,1.219l0,0h0.609v0.609v0.609h0.609v0.61l0,0l-0.609,0.609l-0.609,0.609
		l-0.609,0.609l-1.829-0.609c0,0.609-0.609,0.609-1.219,1.219l-1.219,2.438l-1.22,1.219h-0.609l-2.438,3.048h-0.609l0,0h-0.61
		l-1.219,1.828l-0.609,0.609l-0.609,0.61l-1.22,3.047c-0.609,0.61-0.609,1.22-0.609,1.22l-0.609,1.828l0,0
		c-0.609,0.609-0.609,1.829-0.609,1.829c0,0.609,0,0,0.609,0.609h0.609h1.22h1.219h0.609h1.219h1.22h0.609
		c1.219,0,3.047-0.609,4.876-1.22l1.829-0.609l1.219-0.609h1.219l7.314-1.828l0.609-0.609l2.438-0.61l0,0l3.047-0.609l1.829-0.609
		h0.609l0.609-0.609l6.705-1.828v-0.61l0.609,0.61l1.828-0.61l0.609-0.609l10.362-3.048h1.219l5.486-1.828h0.609h0.609v1.219
		l-0.609,0.609h-1.829l-3.656,0.61l-2.438,1.219h-0.609l-3.657,0.609l-1.829,0.609l-4.876,2.438l-3.657,1.219l-4.267,1.219
		l-4.876,1.829l-0.609,0.609l-1.829,0.609l-1.219,0.609l-1.828,0.609l0,0l-1.829,1.829l-1.828,1.219h-0.609l-0.609,0.609
		l-5.486,1.829v0.609l0,0l-1.828,0.609v0.609l-3.657,0.609l-3.048,1.22l-1.219,0.609l0,0v-0.609h-0.609l-0.61,0.609h-0.609l0,0
		l-1.219,0.609h-2.438h-0.61h-1.828l-1.22-0.609l-0.609-0.609l-0.609-0.609v-1.22v-0.609c0-0.609,0-1.219,0-3.048l0.609-1.219
		v-0.609l1.22-1.829l0.609-1.219l1.828-1.828L582.096,573.523z"/>
	<path fill="#072322" stroke="#000000" stroke-width="0.75" stroke-miterlimit="10" d="M640,569.866l0.609-1.219l0,0l1.219-1.828
		l1.22-2.438l2.438-3.657l0.61-1.219l4.266-6.096l1.22-1.828l0.609-0.609l2.438-4.267l1.828-3.657l1.828-3.048l0.61-2.438v-1.219
		h-0.61v-0.609l0.61-0.609l-0.61-3.657l0.61-4.267l0.609-1.219l1.828-4.877l3.657-2.438l2.438-0.609l1.828,1.219l0.61,1.219v1.829
		l0.609-0.61l-0.609,0.61h0.609l-0.609,0.609l-0.61,1.219v0.609c-0.609,2.438-1.828,4.876-3.047,7.314l-1.22,5.485L663.162,540
		l-1.219,0.609l-1.829,3.048l-1.219,2.438l-0.609,3.047l-0.61,1.829l-1.828,1.219l-0.609,0.609l-0.609,1.22v1.219l-0.609,0.609
		l-4.268,6.095l-0.609,1.829l-2.438,3.048l-1.219,3.047l-4.268,6.705l-0.609,1.829l-2.438,3.656l0,0l-0.609,1.22h-0.61l-0.609,1.219
		l-0.609,1.829c1.219-0.61,1.219-1.829,2.438-2.438l0.609-0.609l0,0l0.609-1.22l1.219-0.609l0.609-0.609l1.22-1.219l1.219-0.609
		l1.829-1.829l1.219-0.609c3.047-2.438,5.485-5.485,8.533-7.924l1.219-1.219l0.609-0.609l1.829-1.22l1.219-1.219l3.657-2.438
		l0.609-0.609l4.876-3.047l1.22-0.61c1.828-0.609,3.656-1.828,5.485-3.047c1.219-0.609,4.267-1.829,6.705-1.829l0,0h4.267
		l1.219,1.829l1.828,1.828l0.61,3.657v1.219v1.829l-0.61,2.438v1.22v1.828l-1.219,5.486v-0.61l1.219,1.829l0.61,2.438l0.609,0.61
		l-0.609,0.609l-0.61,1.219v1.828l0.61,1.22l0.609,0.609l1.828,1.219c3.048,0,6.705,0,10.362-0.609l4.267-1.828h1.219l3.048-1.22
		h1.219l4.267-1.219l3.048-1.828h1.828l1.829-0.61l3.657-1.219c2.438-1.219,4.876-2.438,7.314-3.657l1.828-1.219h1.219l4.877-2.438
		l1.219-1.219l1.828-1.219l1.829-1.22l6.095-2.438l7.314-4.267l0.609-0.609l3.048-1.829h0.609v-1.219h0.61L768,554.02l0.609-0.61
		h1.219l0.609,0.61v1.219l-0.609,0.609l-1.219,0.609c-3.657,1.829-6.705,4.267-10.361,6.705l-1.829,1.828L755.2,565.6l-1.22,0.609
		h-0.609l-2.438,1.829l-0.609,0.609h-0.61c0,0-0.609,0-0.609,0.609l-0.609,0.609l-1.219,0.61l0,0
		c-1.829,1.219-4.267,2.438-6.705,3.656l-3.657,1.829l-9.143,4.267h-0.609l0,0l-3.048,2.438l-2.438,1.219l-3.047,0.609l-3.048,1.828
		l-1.219,0.61l-1.829,0.609l-2.438,0.609h-1.22l-0.609,0.609h-0.609h-0.609c-1.829,0.609-3.657,0.609-4.876,0.609h-3.048
		l-1.22,0.609h-0.609l-1.828-0.609l-1.219,0.609h-1.829h-0.609c-2.438,0-4.876-1.828-6.705-3.047
		c-1.219-0.61-2.438-1.22-3.047-3.048v-0.609c0-1.22,0-1.829,0-3.657v-1.829l0.609-2.438l1.219-3.657l0,0l0.609-0.609l1.829-7.314
		l0,0l-0.609-0.609l0.609-1.22c0.609-3.047,0-5.485-3.048-6.095c-1.219,0-1.829-0.609-3.657,0l-1.828,1.219l-1.829,1.219
		c0,0,0,0-0.609,0l-4.267,3.048l-0.609,0.609l-0.609,0.61l-3.657,3.656l-1.829,0.61l-0.609,1.219l-6.705,4.876h-0.609l-1.828,1.219
		h-0.609l-0.609,1.829l-1.829,1.219l-0.609,0.609l-1.829,1.22l-1.219,1.219l-0.609,0.609l-0.609,1.828l-1.829,1.829l-1.828,1.219
		c-3.048,3.048-6.096,6.096-9.753,9.753l-0.609,1.219l0,0l-1.828,1.828c0,0,0,0-0.609,0v0.61h-0.609v0.609v0.609l-0.61-0.609
		l-0.609,0.609H627.2l-1.829-0.609l-0.609-1.829v-6.095l1.22-3.657l1.219-1.219l1.828-1.829l2.438-1.219v-0.609l0,0h0.609v-0.609
		l0.609-0.609l0.609-1.829l1.22-2.438l1.219-1.219l0.609-1.219l3.048-4.876L640,569.866z"/>
	<path fill="#072322" stroke="#000000" stroke-width="0.75" stroke-miterlimit="10" d="M851.505,599.124l-1.829,0.609l-1.219,1.219
		l-0.609,0.609l-1.828,0.61l-3.658,1.219l-3.047,1.219h-1.219h-0.61l-0.609,0.609v0.609l0,0l0,0h-0.609l-2.438,1.22H832
		c-0.609,0-0.609,0-1.219,0h-1.22h-3.657l-1.828-1.829v-0.609l-1.219-1.828l-1.829-3.048v-1.219l-1.219-1.829l0.609-5.485
		c0-2.438,0.609-3.657,0.609-6.096v-0.609l0.609-1.219l0,0v-3.657l1.22-3.657v-1.219l0.609-1.829v-0.609l0.609-0.609v-0.609l0,0
		v-1.219v-0.61l0.609-1.219l1.829-4.267v-1.219v-0.609l0.609-0.61l0,0l1.219-1.828v-0.609l0,0v-1.22l0.609-2.438l0.61-0.609v-0.609
		l-0.61-0.61l0.61-1.219v-0.609l0.609-1.829l-0.609-3.047v-0.609l-0.61-1.829l-0.609-0.609c0,0-0.609,0-0.609-0.609l-1.219-1.829
		l-4.267,4.877l-3.048,4.267l-4.876,3.657l-3.657,3.047l-1.829,1.829l-0.609,0.609h-0.609l-6.096,6.095h-0.609l-1.828,1.829
		l-1.22,0.609c-1.828,1.219-3.048,3.048-4.876,4.267l-1.828,2.438l-1.22,1.828l-3.048,1.829l-2.438,2.438l-1.219,0.609l-1.829,1.22
		l-2.438,1.219l-1.219,0.609l-1.219,1.219l-1.828,1.22l-6.096,4.267v0.609v0.609H768l-1.829,0.609h-0.609
		c-6.095,3.657-12.19,6.096-17.676,6.096c-1.22,0-5.486-1.829-5.486-1.829c0-0.609-0.609-0.609-0.609-1.219l0,0l-1.219-2.438v-3.656
		l0.609-3.048l0.609-1.829l1.22-2.438v-1.22l1.219-1.219l2.438-4.876v-0.609l0.61-1.22l4.267-3.656l1.219-1.22v-2.438l0.609-0.61
		l1.219-0.609l9.144-8.533l0,0c2.438-2.438,5.485-4.876,7.924-7.314l0,0l1.828-1.828l1.219-0.609l3.048-1.829l1.219-1.219
		l1.22-0.609l1.828-1.22l2.438-1.219l2.438-1.828h0.609h0.61c2.438-1.22,4.876-2.438,7.313-3.657l0.61-0.609l0.609-0.609h0.609
		l2.438-0.61l2.438-1.828h0.609h1.22c1.219-0.609,2.438-0.609,3.657-1.219c3.047-0.609,6.095-0.609,9.143,0h1.219l1.219,0.609h1.22
		c0.609,0,0.609,0,0.609,0.609l1.829,4.267l0.609-1.219v-1.22l1.828-0.609l4.876-4.876l1.22-1.828l1.219-0.61l4.876-4.876
		l3.048-3.657l3.657-3.657l3.657-4.267l4.267-4.876l5.485-6.705l0,0l0,0l3.657-4.267l2.438-3.657l1.828-2.438l1.219-0.609l0.61-1.22
		l2.438-2.438v-0.609l1.22-0.609l0.609-1.22l1.828-2.438l4.267-5.486l0.61-1.219v-0.609l0,0l4.266-5.486l0.61-1.219l0.609-0.609
		l0.609-0.609l1.219-1.829v-0.609l0.61-0.609l0.609-1.219l1.219-1.829l3.657-4.876l1.219-1.828l0.61-1.22l3.656-4.876l1.22-1.219
		l3.657-4.877l2.438-2.438l1.219-1.219v-0.61l3.048-4.267l0.61-1.828l0.609-1.219l2.438-1.22l0.609-1.219l0.61-0.609v-1.22
		l0.609-0.609v-0.609l6.095,0.609l0,0h0.609l0.609-0.609h0.61l0,0l1.219-1.219l1.219-0.609l0.61-0.609h0.609l1.219-0.61l0,0h1.219
		h0.609h1.829l1.219,1.829l0.609,1.219l-2.438,4.267l-3.048,3.657l0,0l1.219,0.609l0.609,1.22l-1.828,1.828l-2.438,3.048
		l-1.22,1.828h-0.609l-0.609,0.609h-0.609l-3.048,0.61l-2.438,0.609h-0.609l-3.048,3.657l-1.828,1.828l-1.219,1.829l-2.438,0.609
		l-3.657,3.657l-1.828,2.438l-0.61,0.609l-1.219,1.829l-1.828,1.219l-5.486,7.314l-3.048,4.267l-3.047,3.657v0.609l-1.829,4.267
		l-1.219,1.219l-0.609,1.22l-1.22,2.438l0,0l-1.219,2.438l-1.219,2.438l-0.609,0.609l-0.609,0.609l-5.486,6.705v0.609l0,0
		l-1.828,1.828v0.609l-7.314,9.753l-0.609,0.609l-4.267,5.485l0,0l0,0c-5.486,7.924-10.362,14.629-12.19,17.677l0,0l-0.609,0.609
		l-0.61,0.609l-0.609,1.219l0,0h-0.609c-3.048,4.877-5.485,9.144-8.533,14.629l0,0c0,0.609-0.609,0.609-0.609,0.609l0,0v0.609
		l-0.61,0.609v0.61l-0.609,1.828l0.609,0.609l-0.609,0.609l0,0l-0.609,0.609v1.22l-1.219,3.047h-0.609v0.61l-1.22,1.828l0,0h-0.609
		l-0.609,1.219l-1.829,4.877l0,0l-0.609,1.828l-0.609,3.657l-1.219,3.048l-0.609,4.267l-0.61,4.267l-0.609,1.828l-0.609,1.22
		c0,0.609,0,1.828,0,2.438c-0.609,6.705,1.219,10.362,4.267,11.581l1.828,0.609l0,0c0.61,0,1.829,0.609,2.438,0.609l1.219-0.609
		l3.048-0.609l0.609-0.609l2.438-1.219h1.219h1.829h0.609c4.876-1.829,9.143-4.877,13.409-7.314l3.048-1.829l1.219-0.609h0.609
		v-0.609l0.61-0.609l1.219-1.219l1.828-1.22l2.438-1.219l5.485-4.267l2.438-1.219l3.657-3.048l1.219-0.609l3.048-2.438l1.219-0.609
		l1.219-0.609l2.438-1.829l0,0l0.609-0.609l3.048-3.048l1.828-0.609l1.829-1.219l0,0l5.485-4.267l0.609-0.609l2.438-1.829
		l0.609-0.609l0,0h0.609l0.61-0.609l0.609-0.609l0.609-0.609h0.609l0,0h1.219l0.61,1.219l-0.61,0.609h-1.219l0,0l0,0l-14.629,11.581
		l-0.609,1.219l-0.609,0.61l-1.219,0.609l-0.609,0.609c-3.657,3.048-7.314,5.485-10.972,7.924l-3.657,2.438v0.61l-1.219,0.609
		l-1.22,1.219l-1.219,0.609l-12.19,8.533l-1.219,1.22l-2.438,1.828l0,0h-0.609l-1.219,0.609v0.609h-0.61h0.61v0.61L851.505,599.124
		h-0.61v-1.22l0,0L851.505,599.124z M761.904,566.21l-1.828,2.438l-1.828,1.829l-1.22,3.047l-1.828,1.22l-1.22,1.828l-0.609,3.048
		v2.438l-0.609,0.609v0.609l-1.219,2.438l-0.609,2.438v3.657v2.438v0.609l0.609,0.609h1.219h1.219l1.22-0.609
		c0.609-0.609,1.219-0.609,1.828-0.609l1.829-1.829l1.828-1.219l1.219-0.609l3.048-0.609l2.438-1.22c0,0,0.609,0,0.609-0.609
		c3.657-1.828,6.705-4.267,9.143-6.095v-0.61l3.048-1.828c0.609-0.609,1.219-0.609,1.829-1.219l1.828-1.22l0.609-1.219l3.048-3.048
		l1.219-1.219l0.61-1.219h0.609l3.047-1.829c4.877-4.267,9.753-9.143,16.457-15.238l4.268-4.267v-0.609l3.656-3.657l1.829-1.828l0,0
		l1.219-0.609l1.22-2.438l1.219-1.828l-1.219-3.048l-1.829-1.829l-0.609-0.609l-0.609-0.609c-4.876-1.219-11.581,0.609-17.067,3.048
		l-3.656,1.828l-1.829,0.609l-1.219,0.61c-0.61,0-1.22,0.609-1.22,0.609c-5.485,3.047-9.143,3.657-19.504,12.19l-2.438,3.048
		l-1.829,3.047L768,558.896v0.609v0.609l-1.828,1.219l-1.22,1.22l-1.828,1.828l-0.609,0.609l0,0v0.609L761.904,566.21z
		 M828.952,541.828L828.952,541.828l0.61,0.61l1.219,1.219l0.609,1.219h1.219l0.609,0.609l0,0l1.829-1.828v-0.609l0,0v-0.609l0,0
		v0.609l0,0l1.219-2.438V540l0.609-1.219l0.61-0.609v-1.829l0.609-0.609l0.609-1.219l1.219-0.61l0.609-1.219l0,0l2.438-3.657l0,0
		l1.219-1.828l1.829-2.438l0.609-0.609c3.657-5.485,7.314-10.362,10.972-15.848c-4.876,4.876-10.972,10.972-17.067,17.677
		l-3.047,3.656l-1.22,1.22h-0.609L827.733,540C828.343,540.609,828.952,541.219,828.952,541.828z"/>
	<path fill="#072322" stroke="#000000" stroke-width="0.75" stroke-miterlimit="10" d="M960.609,573.523L960.609,573.523
		l0.609-1.219l3.657-4.876l0.61-1.829l0.609-0.609v-0.609l0.609-0.609l2.438-2.438l0.61-1.219v-0.609l0,0l0.609-1.829l0,0h-1.219
		h-1.829l-2.438,0.61l-6.096,2.438l-1.219,0.609h-1.219l-6.096,3.657l0,0l-1.828,1.22l-1.22,0.609l-1.219,0.609l-4.876,2.438
		l-4.877,3.048l-1.828,0.609l-3.048,1.829l-1.219,0.609l-2.438,1.219l-1.219,0.609l-3.657,2.438l-1.219,0.609l-1.22,1.219
		l-1.828,0.61l-1.828,0.609l-4.877,3.048l-0.609,0.609l-1.828,1.219h-0.609l0,0h-1.829l-2.438,1.219h-1.828
		c-0.609,0.609-1.219,0.609-1.828,0.609l-0.61,0.61L896,591.81h-0.609l-3.048,1.219h-0.609h-0.609h-0.609h-1.22l0,0
		c-3.656,0.609-6.095,0-6.704-2.438c-0.61-2.438,0-6.096,1.219-9.144l0.609-2.438h0.609V578.4l0.61-1.22l0.609-0.609h0.609l0,0
		l0.609-1.219l1.219-1.829l2.438-1.828l0.609-0.609l1.829-2.438l0.609-1.219l1.828-1.22l2.438-1.828l9.752-8.533l0,0l0,0
		l2.438-2.438l0.609-0.609l3.657-3.048l1.829-1.219l5.485-4.267l0,0l2.438-2.438l1.219-1.219l0.609-1.219h0.609h1.219l0.61-0.609
		l1.219-0.61h0.609h1.219l0.61-0.609v-0.609l1.828-0.609l6.705-3.657l1.219-1.219l0.609-0.609h1.828h0.609h0.61l1.828-0.609h0.609
		l1.22-0.61h1.219l1.219-0.609l1.219-0.609h0.61l1.828,0.609h1.219h1.22h0.609h0.609l0,0H960l0.609,0.609v0.61h0.61l0.609,1.219
		v1.828l-0.609,0.609c0,0.61-0.61,1.22-2.438,2.438c-0.609,0.609-1.219,0-1.219,0l-2.438,0.609h-1.219h-3.657l-3.657-0.609l0,0
		h-0.609l0,0h-0.609h-1.22h-1.219l-3.048,1.219l-3.657,1.22l-4.876,1.828l-3.657,1.219c-1.219,0.61-2.438,1.22-3.657,2.438l0,0
		l-1.828,1.219l0,0h-0.61l-9.752,6.705l-0.609,0.609l-1.829,1.829l-1.219,1.219l-1.219,0.609l-1.829,1.219l-0.609,0.61l-1.828,1.828
		l-0.609,0.609l-0.61,0.609l-2.438,3.048l-0.61,0.609l-0.609,0.609l-0.609,0.609l-0.609,0.61L896,567.429h-0.609l-0.61,1.219
		l-0.609,1.219l-0.609,0.61l-1.219,1.219l-1.22,1.219l-1.828,2.438v0.609v1.219v0.609v0.61l-0.609,0.609l-0.609,0.609l-0.61,0.609
		l-1.219,1.219l-0.609,1.22v3.047v0.61v1.219l0.609,0.609l0.609,1.219l0.61,0.609l4.266-1.828l1.829-0.609l3.048-1.219l0,0h1.219
		c3.048-1.22,5.485-2.438,8.533-3.657l1.219-0.609l1.22-0.61l1.219-0.609h1.829c2.438-1.219,4.876-1.828,7.313-3.657l1.22-0.609
		l1.219-0.609l0,0h0.609l0.609-0.609h0.609l3.048-1.219l1.829-0.61l1.219-0.609l5.485-3.047l1.22-1.22l6.095-2.438l1.219-0.61
		l3.657-1.828l1.829-1.219l3.657-1.829l1.219-0.609l1.828-1.219l1.22-0.609l2.438-1.829l3.048-1.828l6.705-1.22h2.438l1.829,0.61
		l1.219,0.609l0.609,0.609c0.61,0,1.22,0.609,1.829,1.219l0,0h0.609v0.609v0.609h0.609v0.61l0,0l-0.609,0.609l-0.609,0.609
		l-0.609,0.609l-1.22,1.219c0,0.61-0.609,0.61-1.219,1.22l-1.219,2.438l-1.22,1.22h-0.609l-1.828,1.219l-0.609,0.609l0,0h-0.609
		l-1.219,1.828l-0.609,0.61l-0.61,0.609l-1.828,2.438c-0.609,0.609-0.609,1.22-0.609,1.22l-0.61,1.828l0,0
		c-0.609,0.609-0.609,1.829-0.609,1.829c0,0.609,0,0,0.609,0.609h0.61h1.219h1.219h0.609h1.22h1.219h0.609
		c1.219,0,3.048-0.609,4.876-1.22l1.829-0.609l1.219-0.609h1.219l7.314-1.828l0.609-0.609l2.438-0.61l0,0l3.048-0.609l1.828-0.609
		h0.609l0.61-0.609l6.704-1.828v-0.61l0.609,0.61l1.829-0.61l0.609-0.609l10.362-3.048h1.219l5.485-1.828h0.61h0.609v1.219
		l-0.609,0.609h-1.829l-3.657,0.61l-2.438,1.219h-0.61l-3.657,0.609l-1.828,0.609l-4.876,2.438l-3.657,2.438l-4.267,1.22
		l-4.876,1.828l-0.609,0.609l-1.829,0.609l-1.219,0.61l-1.829,0.609l0,0l-1.219,0.609l-1.828,1.219h-0.61l-0.609,0.609l-5.485,1.829
		v0.609l0,0l-1.829,0.609v0.609l-3.657,1.22l-3.047,1.219l-1.22,0.609l0,0v-0.609h-0.609l-0.609,0.609h-0.609l0,0l-1.22,0.609H960
		h-0.609h-1.22l-1.219-0.609l-0.609-0.609l-0.609-0.609v-1.22v-0.609c0-0.609,0-1.219,0-3.048l0.609-1.219v-0.609l1.219-1.828
		l0.609-1.22l1.829-1.828L960.609,573.523z"/>
	<path fill="#072322" stroke="#000000" stroke-width="0.75" stroke-miterlimit="10" d="M1409.828,581.447v0.609l2.438,3.048
		l0.609,0.609v0.61c2.438,4.267,3.048,9.143,1.22,14.628l-1.22,1.829h0.61l-1.829,3.657l-3.657,4.876l-0.609,0.609l-1.829,2.438l0,0
		h-0.609l0,0l-0.609,0.609l-4.876,4.267l-3.048,1.219l-3.048,1.829l-1.828,0.609h-1.219h-1.22h-0.609
		c-0.609,0.609-1.219,0.609-1.829,0.609l0.61,0.609l-0.61,0.609h-0.609l0,0l0,0v-0.609l0,0l0,0l0,0
		c-8.533,3.048-20.724,6.095-33.523,8.533l-1.828,0.609h-0.61h-3.047l-0.609,0.609l-4.877,1.22h-0.609l-1.219,0.609h-0.609
		l-0.61,0.609h-1.219h-0.609l-1.219,0.609l-1.829,0.609l-1.828,0.609h-1.829h-6.704l-1.829,0.61l-0.609,0.609h-0.609h-0.609
		l-5.486,0.609l0.609,0.609l-1.219,0.609l-1.219-0.609l-3.657,0.609l-3.657,0.609l-3.048,0.609l0.609,0.61l-0.609,0.609
		l-1.828,0.609l-0.61-0.609v-0.609l0.61-0.61h-1.22h-1.828h-0.609l-1.219,0.61h-1.829h-1.219l-7.924,1.219h-0.61h-1.219
		c-1.828,0.609-4.267,0.609-6.705,1.219l-0.609,0.609l-6.704,0.609l-3.657,0.61h-1.22l-12.8,1.828l-8.533,1.219l-2.438,0.61h-3.048
		l-1.22,0.609l-5.485,0.609l-1.828-0.609l-1.22,0.609l-9.143,1.219h-3.048c-1.219,0-1.828,0-3.048,0.609h-3.047l-2.438,0.609
		l-3.657,0.61l-5.485,0.609h-3.048c-2.438,0-4.876,0.609-7.314,0.609c-1.219,4.267-2.438,8.533-4.267,12.19
		c-0.609,1.219-1.828,3.657-3.657,4.267l-3.047,3.657l-5.486,3.048c-1.828-1.22-1.219-4.267-1.219-6.705
		c0.609-2.438,1.828-4.876,3.657-7.314l0,0l0.609-0.609v-0.609h-0.609l0,0l0,0l0.609-1.219l0,0l0.609-0.61h0.61
		c0.609-0.609,0.609-1.219,1.219-1.828v-1.829h-0.609c-1.22,0-3.048,0.61-4.268,0.61v0.609l-1.219,0.609h-1.219l-0.609-0.609l0,0
		c-9.143,1.219-17.677,1.828-26.819,2.438l0,0l-14.628,1.22c-0.61,0-1.22,0-1.829,0l-1.219,0.609l-2.438,0.609h-0.609l-4.267,0.609
		h-0.609h-1.22l-0.609,0.609h-5.485l-14.02,1.22l0,0h-0.609c-7.314,0.609-14.628,1.219-22.552,2.438l-0.61,0.609l-0.609-0.609
		l-4.876,0.609l-10.362,1.829h-1.828l-1.829,0.609h-0.609c-7.924,1.219-15.848,3.048-23.162,4.876l-1.219,0.609l-3.657,1.22H1024
		l-8.533,2.438h-0.609l-7.314,2.438l0,0l0,0l-4.876,1.828l-7.924,3.048l0,0c-1.829,0.609-3.048,0.609-4.876,1.219h-0.61
		l-0.609,0.609h-1.219l-0.609-0.609v-1.219l0.609-0.609h1.219h0.609l10.362-3.657l2.438-0.609h0.61c0.609,0,0.609-0.609,1.219-0.609
		l0.609-0.609h0.609c3.657-1.22,6.705-2.438,10.362-3.657l1.219-0.609l0.609-0.61l3.048-0.609l0.609-0.609h1.22l1.219-0.609h1.219
		l6.705-1.829l1.828-0.609l2.438-0.609l0,0c0.609,0,1.219-0.609,1.219-0.609v-0.609h0.61l3.047-0.609l10.362-1.829
		c0,0,0.609,0,1.219,0l1.829-0.609l10.971-1.828l6.096-0.609l3.048-0.61h0.609l3.048-0.609h0.609h2.438l1.22-0.609v0.609
		l0.609-0.609h3.657h1.219c3.657-0.609,7.314-1.219,11.581-1.219h1.219l3.657-1.219l3.048,0.609h1.219
		c4.876-0.609,9.144-1.22,15.238-1.829h0.609l1.829-0.609l6.095-0.609l3.657-0.609l9.143-0.609l9.144-1.22l2.438-0.609l3.048-0.609
		l7.924-0.609l5.485-0.609h1.829l6.095-0.609l0.61-0.61l1.219-3.047h0.609l0.609-1.22l1.219-3.047l3.048-5.486l1.22-1.828
		l3.047-4.876l1.22-1.22l1.219-1.828l3.048-5.486l1.219-1.828l0.609-0.609l0.609-1.219l0.609-0.61l1.22-1.828l0.609-0.609
		l1.829-2.438l3.047-4.876v-0.609l0.609-0.609l0.61-0.609l1.219-1.829l1.219-2.438v-0.609l1.22-1.828l1.219-2.438v-1.219
		l0.609-0.609h0.609l1.219-1.829l0.61-0.609l6.095-9.752l0,0l-0.609-0.609v-0.61l0.609-0.609l0.609-0.609v-0.609h0.609v-0.609
		l1.22-1.829h0.609l3.657-4.876l1.219-1.828l0.609-1.829l1.22-1.219l1.219-1.219l0.609-1.22c4.267-6.704,9.144-12.8,14.02-19.504
		l0.609-1.22l0.609-1.219l0,0l0.609-1.219l3.048-3.657l1.828-2.438l1.22-1.828l0.609-1.22h0.609
		c6.096-8.533,12.8-16.457,19.505-24.99l8.533-9.752c0.609-0.61,1.219-1.22,0.609-2.438l4.267-5.485c1.22,0,1.22-0.61,1.22-1.829
		c2.438-1.828,4.267-4.876,6.704-7.314l9.144-13.409c2.438-1.219,3.657-4.267,5.485-6.096c1.829-1.219,3.048-3.047,4.267-4.876
		l1.219-0.609l3.657-5.485v-1.22c0.61,0,1.22-0.609,1.22-0.609c0-0.609,0.609-1.219,0.609-1.828
		c1.219-0.609,1.828-1.829,3.047-3.048l0,0c1.22-1.219,3.658-1.219,4.268-3.048l1.828-2.438c3.048-1.22,3.657-3.048,6.705-4.267
		c3.047-1.829,4.876-3.657,6.705-3.048h0.609c3.657,1.219,6.704,3.657,3.047,6.705l-4.876,3.047l-1.828,0.609
		c-3.048,0.61-4.267,4.268-6.096,3.048c-2.438,1.829-5.485,1.829-6.095,4.876l-3.657,2.438
		c-11.581,15.848-24.991,29.257-37.791,43.886l-1.828,4.876c-1.829,1.22-3.657,4.267-5.485,6.096l-4.877,7.924l-0.609,1.219
		l-4.267,3.657c-0.609,0.609-1.219,1.219-1.829,1.828c0,0.61-0.609,1.829-1.219,1.829l-9.752,12.19l0,0V540l-0.609,0.609
		c-0.61,0.609-1.22,1.219-1.22,1.829l-0.609,0.609l-0.609,0.609h0.609v0.609l-0.609,0.609h-0.609l0,0v-0.609l-0.61,0.609
		l-0.609,0.609l-0.609,0.609v0.61l0,0h-0.609l-2.438,3.047v0.61l-1.219,1.828l-0.609,1.219l-2.438,3.657l-0.609,0.609l-5.485,7.924
		l-0.609,1.22l-1.22,1.219v0.609l-1.219,1.829l-0.609,0.609v0.609l-2.438,3.048l-0.609,0.609l-0.609,0.609l-0.609,0.609l-0.61,1.828
		h-0.609l-0.609,1.22l-0.609,1.219l0.609,4.876l-1.219,1.22l-3.657,4.876l-0.61,1.219h-0.609h-0.609
		c-3.657,5.486-7.314,11.581-10.361,17.067c0,2.438-1.829,4.267-3.658,6.704c-0.609,1.22-3.656,4.267-4.876,6.096
		c-0.609,1.828-1.219,3.657-1.828,5.485c-1.22,0.609-1.829,3.657-2.438,4.876l-3.047,6.705c-1.22,1.828-2.438,3.048-3.658,4.876
		l-1.219,3.657l-3.657,6.705c6.705-0.609,13.41-1.829,20.724-3.048l2.438,0.609h1.829l3.657-0.609h0.609h4.267l2.438-0.609h0.61
		l3.048-0.609l4.266-0.609h0.61l4.267-0.61l3.047-0.609l6.705-1.219c0,0,0,0,0.609,0h1.829c0.609,0,1.219,0,1.828,0l6.705-1.219
		l1.829-0.609h2.438l6.096-1.22l9.143-1.828l3.048-0.609l3.657-0.609l10.361-1.22l7.314-1.219h1.219l4.877-1.219l1.828-0.61l0,0
		c7.314-1.219,16.457-3.047,26.21-4.876l4.267-1.828h0.609l1.828-0.609v-0.61h0.609l5.486-1.828h0.609l0.609-0.609l3.657-0.609l0,0
		l1.829-0.609h1.219l3.657-1.22h0.609l3.048-1.219l3.657-1.219l5.485-1.829l1.219-0.609l1.829-0.609l0.609-0.609l8.533-3.048l0,0
		h0.609l6.705-2.438l0.609-0.609v-0.609l1.829-0.609l1.219,0.609l4.267-3.048l0.609-0.609l0.61-0.609v-1.219l0.609-0.609l0.609-0.61
		h1.219l1.219-0.609c1.22-1.219,1.829-2.438,3.048-3.657c0.609-1.219,1.22-2.438,1.22-3.656v-0.61v-0.609v-1.219
		c-0.61-1.828-1.22-4.267-3.048-6.096l0,0l-0.61-1.219l-1.219-0.609l-1.828-1.828l-0.609-1.829c0,0,0,0,0-0.609
		c-1.829-1.829-4.268-3.657-6.705-4.876l0,0l-0.609-0.609l-1.22-0.61l0,0c-4.267-2.438-8.533-4.876-13.409-6.704l-1.828-0.609
		l-3.048-1.22l-3.657-2.438c-0.609,0-1.829-0.609-3.048-1.22l-3.657-1.219l-2.438-0.609l-3.048-0.609l-1.829-0.609l-1.219-1.22
		l-1.219-1.219l-1.829-0.609h-0.609h-1.22l-0.609,0.609l-0.609-0.609h-0.609l0,0l-1.219-0.609l0,0h-0.61h0.61l-0.61-0.609
		l-0.609-0.61v-0.609l0,0l-1.219-1.219l-1.22-1.828l-0.609-0.61l-1.219-0.609l-0.609-1.828v-1.22l0.609-1.219l0.609-0.609
		c0-0.609,0-1.828,0-2.438l-0.609-0.609v-0.609v-0.609l0,0v-1.219l0,0l0,0h0.609v-0.609V540l0,0l0,0l0.609-1.219l0.61-1.219
		l0.609-0.609h0.609l0,0c0-0.609,0.609-1.22,1.219-1.829v-0.609l2.438-2.438l2.438-2.438l0,0l1.22-1.219l0.609-1.22l0.609-0.609
		h0.609l0.61-0.609l0.609-1.219l0.609-0.61l0.609-1.219l2.438-1.219l1.828-1.219l0,0l1.219-0.61l1.22-1.828l1.828-1.219l0.609-0.61
		l0.609-0.609h0.61l3.657-2.438l1.828-0.609l2.438-1.829l0.609-0.609l1.828-1.219v-0.609h1.22l0.609-0.61l1.828-0.609l0.609-0.609
		l-0.609-6.096l8.533-5.485l2.438-1.22l1.828-0.609l4.876-3.047l0.609-0.61l1.22-0.609h1.219l0,0l2.438-1.219l0,0v-0.609
		l0.609-0.609v-0.61l0,0l1.219-0.609l0,0l0,0v0.609l1.219-0.609h0.61l1.219-0.609h0.609l1.219-0.609l2.438-1.219l1.828-1.829
		l3.657-1.828h1.829l1.828-1.219l0.609-0.61l0,0l1.22-0.609l3.048-2.438l3.656-1.829l0,0c1.22-1.219,3.048-1.828,4.268-3.048
		l1.219-1.219l1.828-3.048l1.829-3.657l0.609-0.609l0.609-1.219c0.609-1.219,0.609-3.048,0.609-4.267
		c0-2.438-0.609-4.876-1.828-6.705l0,0l-1.219-1.219l-1.22-1.829l0,0l0,0l0,0l0,0l-0.609-0.609l-0.609-0.609l-1.828-0.609
		l-1.829-0.609l-3.048-1.219l-4.876-1.22l-1.829-0.609l-1.219-0.609l-4.876-1.829l-5.485-1.219l-1.829-0.609l-3.657-0.609
		l-0.609-1.829l-3.048-0.609l-1.219-0.609l-4.267-1.219h-1.219h-1.829l-1.219-0.609c-4.876-0.61-9.143-1.22-12.8-1.829h-4.267
		h-1.829l-1.828-0.609h-4.267l-4.877-1.219h-1.219h-1.219c-6.096-0.609-12.8-0.609-18.896-1.22h-1.219h-1.829h-4.876h-0.609h-1.219
		h-1.22l-0.609-0.609h-3.657h-9.752l-3.048,0.609l-3.657,0.61l-3.657-0.61h-3.048l-7.924,0.61l-7.924,0.609l-9.143,0.609
		l-4.267,0.609l-8.533,0.609l-15.848,3.048l-7.924,1.828h-0.609l-1.22,0.609h-1.219c-5.485,1.22-11.581,2.438-17.066,4.268
		l-1.219,0.609l-1.22,0.609l-1.828,0.609l-6.705,1.828l-6.705,1.829l-0.609,0.609h-0.609l-7.314,2.438
		c-3.657,1.219-6.705,3.657-9.752,4.876c-2.438,1.828-4.877,3.657-6.705,5.485c-1.829,1.22-4.267,2.438-6.096,3.657l-0.609,0.609
		l-3.657,2.438l-1.828,1.828c-0.609,0-0.609,0.61-1.219,0.61l-0.61,1.219l-0.609,1.828l-3.048,1.829h-1.828h-0.609l-0.609,0.609
		c0.609,1.219-1.829,2.438-1.829,4.876c-0.609,2.438-2.438,4.267-4.267,5.486v1.219v1.219h-0.609l-0.609,0.609l-1.22,0.609
		c1.22,0,2.438,0,3.657,0c2.438,0,4.877,1.22,4.267,4.267c-1.828,3.048-6.095,2.438-9.143,3.048
		c-2.438-1.219-6.095-2.438-7.314-3.657c-3.657-1.828-4.267-6.704,1.829-12.8l0.609-1.828l1.828-1.829l0.609-0.609v-0.609
		l1.22-0.609l0.609-0.609l-0.609-1.22h0.609v0.609l1.829-1.219h1.219l1.219-1.219l0.609,0.609l3.657-3.048l1.829-1.828l0.609-1.22
		l1.828-0.609l1.829-1.219l0.609-0.609l0.609-0.609c1.829-1.22,4.267-2.438,6.705-4.267l1.828-1.22l1.829-0.609l1.219-1.219
		l3.657-1.829l1.829-0.609l1.219-0.609h1.828c0.609,0,1.22-0.609,2.438-0.609l1.219-0.609v-0.609l0.609-0.61h1.22
		c0,0,0.609,0,0.609-0.609h0.609h0.609c1.219-0.609,3.048-1.219,4.877-1.828l0.609-0.609l1.828-0.609l1.829-1.22h0.609l1.219-1.219
		h0.609l0.61-0.609h1.219h1.828l1.829-0.609l5.485-1.22c1.828-0.609,3.657-0.609,5.485-1.219l1.22-0.609l2.438-0.609l6.096-1.829
		h0.609c5.485-1.219,11.581-3.047,17.066-4.267l1.829-0.609h3.048l3.047-0.609l4.877-0.609l2.438-0.609h2.438l7.924-1.22
		l4.876-1.219l12.8-0.609l3.657-0.609l7.314-0.609h3.657l3.048-0.61h3.657l2.438-0.609h6.705l4.267,0.609h4.267l1.829,0.61h6.704
		l1.829-0.61h0.609h0.609v0.61l7.924,0.609l2.438-1.829h0.609l1.22,0.609l4.267,0.61h3.048l0.609,0.609l0,0c0.609,0,1.219,0,1.828,0
		h1.829l3.657,0.609l0,0h0.609h0.609h1.219v0.609l7.924,0.609l6.096,0.609h0.609l1.219,0.61c0.61,0,1.22,0,1.829,0l0,0l0.609-0.61
		l0.609,0.61c0.609,0,0.609,0,1.219,0h0.61l11.581,1.828l3.047,0.609h2.438l8.533,1.829l6.095,1.828l1.22,1.219l6.704,2.438l0,0l0,0
		l5.486,2.438h1.219l1.829,0.609l0.609,0.609l1.219,1.828v0.609l3.657,3.048h0.609l0,0h0.609l0,0l0,0l0.61,0.609v0.61v0.609
		c1.219,1.219,1.828,3.047,2.438,4.876l0.609,0.609v3.657v0.609c0,0.609-0.609,1.219-0.609,1.829v1.219l-0.609,0.609l0,0v0.609
		l-1.219,1.829l-1.829,1.219l-1.828,1.828l-1.219,2.438l-3.658,3.048l-2.438,1.828l-3.048,1.22
		c-1.828,1.219-3.048,1.828-4.267,3.047l-0.609,0.609c-3.048,1.829-5.485,3.048-6.705,3.657l-5.485,3.657l-0.609,0.609l-1.829,1.22
		l-0.609,0.609h-0.609l0,0h-0.609l0,0l-12.19,6.705l-0.61,0.609l-1.828,0.609l-3.048,1.828l-6.704,4.267l-3.048,1.22l-0.61,0.609
		l-5.485,3.657l-3.048,1.219l-3.047,1.828l-3.048,2.438l-2.438,1.219l0,0l-2.438,2.438l-3.048,1.219
		c-3.048,1.829-6.095,4.267-8.533,6.096l-4.267,4.267c-1.219,1.219-1.829,2.438-2.438,3.657h0.61v1.219v2.438v1.219v0.609v0.609
		l-0.61,0.61l-0.609,0.609c0.609,2.438,1.829,4.267,3.657,6.095h1.219l0.609,0.609h0.61l0.609,0.61l1.219,1.828l0.609,0.609
		c0.61,0.609,1.829,1.219,3.048,1.829l0,0h0.609l0.609,1.219l1.22,0.609c1.828,1.219,3.657,1.828,4.876,3.048l1.219,0.609l0,0
		l1.22,0.609l1.828,0.609h0.609l0.61,0.609l0,0l1.219,0.609h1.219l2.438,1.22l1.828,0.609l3.048,1.219v0.609h0.609l1.219,0.61h1.22
		l1.219,0.609l0.609,0.609c0,0,0,0,0.609,0h0.61h0.609l1.219,0.609l0.609,0.609h1.219l2.438,2.438l2.438,1.219l0,0l1.219,0.609
		l0.609,0.609c4.267,3.048,8.533,5.486,11.581,9.144l0,0L1409.828,581.447z"/>
	<path fill="#072322" stroke="#000000" stroke-width="0.75" stroke-miterlimit="10" d="M1519.543,585.104
		c0-0.609,0-1.828,0.609-2.438v-0.609v-0.61l1.219-1.828v-0.609l0.609-0.609l0.61-0.609v-0.61c1.219-2.438,3.048-4.876,4.267-7.313
		l0.609-1.22l0.609-0.609l1.219-1.828v-0.61l1.22-1.828v-1.219l0.609-1.22v-1.828l-0.609-0.609l-0.61-1.22l-0.609,0.61h-0.609
		l-3.047,1.219l-4.268,1.219l-0.609,0.609l-1.219,0.61l-1.828,1.219l-5.486,3.048l-3.657,2.438l-1.219,0.609l-12.19,7.314
		l-1.219,1.22h-0.61l-0.609,0.609l-6.095,3.657l-2.438,0.609l-0.609,0.609l-7.924,4.876l-0.609,0.609h-0.61l-0.609,1.22h-0.609l0,0
		l-1.828,0.609l-0.609,0.609h-0.61l-1.219,0.609h-0.609l0,0h-0.609h-0.61l-0.609,0.609l-1.219,1.219h-0.609l-1.219,0.61l-1.22,0.609
		l-0.609,0.609l-1.829,0.609l-3.047,0.609l-1.219,0.609l0,0l-0.61,0.609l0,0l0,0l-1.219,0.61h-0.609v0.609l0,0l0,0l0,0h-2.438
		l-6.096-0.609l0,0h-1.219l-1.219-0.61l-1.829-1.219c-0.609,0-0.609,0-1.219,0l0,0l0,0l-0.609-1.219c0-1.22,0-1.829,0-3.048V591.2
		l0.609-3.657l0.609-1.829l0.609-1.219l0.609-1.828v-0.61l1.22-1.219l0.609-0.609l1.219-1.828l2.438-4.268l0.609-1.828l1.219-1.828
		l1.219-1.22l0.61-1.828l1.219-1.829l0.609-1.219l1.22-1.219v-0.609l0.609-0.61l1.219-1.219v-0.609l0,0l1.219-1.828l3.048-3.048
		l0.609-1.22l0.609-0.609V552.8l0.61-1.828v-2.438l0.609-1.219l-0.609-1.219v-0.61l0.609-1.219l1.219-1.219l2.438-3.048l1.828-1.219
		h1.219l1.22,0.609l0,0l0,0c0.609,0.609,0.609,1.828,0.609,3.048l0,0l0.609,3.656l-0.609,2.438l-1.219,1.829l-1.829,2.438
		l-1.828,3.657l-1.22,1.219l-0.609,0.61l-1.219,1.219l-1.219,1.219l-0.61,0.609v0.609l-0.609,1.22l-1.219,1.219v0.609l0,0h-0.609
		l-4.267,5.486l-0.609,0.609l-0.61,1.219l-0.609,0.609c-1.219,1.219-1.828,3.048-3.048,4.267l-1.828,3.048
		c-0.609,0.609-0.609,1.219-1.219,1.828l-0.61,1.22v1.219l-0.609,1.829l-1.219,1.828v1.219l0,0c0,0.609,0,1.22,0,1.829
		c1.219,1.828,6.705,0.609,11.581-1.22l1.219-1.219h1.828l3.048-1.219l1.829-0.609l1.828-0.609c3.048-1.22,5.486-2.438,8.533-4.268
		l1.22-1.219l1.219-0.609l1.828-0.609l1.22-0.609l1.828-1.829l5.486-1.828l0.609-0.609l0.609-0.609l1.219-0.61l4.876-3.047l0,0
		l0.61-1.22h0.609l0.609-0.609l1.219-0.609l0.609-0.609l3.048-0.609l6.096-3.657l1.828-1.219l2.438-1.22l2.438-2.438l1.219-0.61
		l1.829-1.219l2.438-1.219l1.219-0.609l1.828-1.22l4.877-1.828l0.609-0.609l1.828-1.22l1.219-1.219v-0.609h0.61l0.609,0.609
		c1.219-0.609,2.438-1.219,3.657-1.828l0,0l1.828-0.609h0.609c0.61,0,1.22,0.609,1.22,1.219h0.609l1.219,0.609l1.22,0.609v0.609
		l-0.609,0.609h0.609v0.61h-0.609v0.609l-0.61,0.609l-0.609,1.219l-1.829,1.829l-1.219,1.828v1.219l-1.828,2.438l-0.609,1.219
		l-0.609,1.22l-1.22,1.219l-0.609,0.609l-0.609,1.829l-0.61,1.828l-1.219,1.219v0.609l-1.828,2.438v0.609l-0.609,1.829v1.219
		l-1.22,1.828l-0.609,0.61c-1.219,3.047-1.219,4.876-0.609,5.485c1.219,1.219,2.438,1.828,4.267,1.828h1.828h1.829h1.219h1.22
		c2.438,0,4.876-0.609,7.313-0.609l0,0h1.22l4.876,0.609h1.219l4.876-0.609l0,0l0,0l1.22-0.609h3.048h1.828l0,0h0.609l0,0h1.22
		l1.219,0.609l0.609,0.609l-0.609,0.61h-0.609h-0.609h-3.657l-0.609,0.609l-0.61,0.609l-0.609-0.609l-3.048,0.609l-7.314,2.438
		h-1.828h-1.219l-3.048,0.61h-1.829h-1.219h-0.609H1536l0,0l-2.438,0.609l-3.048,0.609h-1.829c-2.438,0-4.876,0.609-6.095,0.609
		h-0.61h-0.609c-0.609,0-0.609,0-0.609,0h-0.609l-0.609-0.609V591.2v-0.609l0,0l0,0c-0.609-0.61-0.609-1.829,0-3.048v-1.219V585.104
		z"/>
	<path fill="#072322" stroke="#000000" stroke-width="0.75" stroke-miterlimit="10" d="M1586.59,561.333
		c-2.438,1.829-4.875,4.267-7.313,6.096l-0.61,0.609l-1.219,1.219l-1.219,1.22l-0.609,1.219h-1.22v0.609l-1.219,0.609v0.609h-0.609
		l-3.657,4.267v0.61l-0.609,0.609l-0.609,1.828l-0.609,0.609l-0.609,1.22c-0.61,1.828-1.22,3.047,0,4.267l0.609,0.609l1.219,0.609
		l1.219,0.609l0,0c1.829,0.609,4.268,0.609,6.705,0l2.438-1.219h1.828h3.048l3.657-0.609h1.828l1.829-0.609h0.609l5.485-1.22h0.609
		l3.657-1.219l1.219-0.609l1.829-0.609l1.219-1.22l4.876-1.219l1.829-0.609l1.219-0.609l4.267-1.22
		c4.877-1.828,9.144-3.047,14.02-4.267l6.705-2.438h0.609l1.219-0.609l1.219-0.61l5.486-1.828l2.438-0.609
		c2.438-0.609,5.486-1.829,7.924-2.438l6.096-2.438v-0.61H1664c0.609,0,0.609,0,1.219-0.609l1.22-0.609v-0.609l8.533-3.657
		c3.048-1.219,6.704-3.657,10.362-5.485l0.609-0.609h0.609h1.219l0.609,1.219l-0.609,0.609l-2.438,1.829l-2.438,0.609
		c-8.533,4.876-12.8,6.704-17.066,8.533v0.609l-0.609,0.609h-1.829l-3.047,1.219l-2.439,1.829h-0.609l-1.828,0.609l-5.486,1.828l0,0
		h-0.609l-5.485,2.438l-3.657,1.219l0,0l-0.609,0.61l-1.219,0.609l-2.438,0.609h-0.609h-1.22h-1.219l-2.438,0.609l-6.705,2.438
		l-1.829,0.609h-0.609l-7.313,3.657l-9.753,3.047l-6.705,2.438l-5.485,1.828l-6.096,2.438l-3.656,1.219l-4.877,0.61h-1.219
		l-0.609,0.609l-3.657-0.609l-3.657-1.22h-0.609l-3.048-1.219l-1.22-1.219v-1.22l-0.609-1.219v-1.219l0.609-1.22
		c0-1.219,0-2.438,0-3.657l-0.609-0.609v-0.609v-0.609h0.609v-1.219l0,0l0,0h0.61V578.4v-0.61l0,0l0,0l0.609-1.219l1.828-1.828
		l0.61-0.609h0.609l0,0l0.609-1.22l0,0l0.609-0.609h0.609l1.828-1.828l0.61-0.61l1.828-1.828l1.22-1.828l0.609-0.61l1.828-1.828
		l1.219-0.609l0.61-0.609l0.609-1.22l1.219-0.609l1.829-0.609c1.219-1.219,3.047-2.438,4.876-3.657v-0.609h0.609l1.219-1.219h0.61
		c0.609-0.609,1.828-1.22,2.438-1.829l1.219-1.219l1.22-0.609l0.609-0.609l0,0l10.362-6.096l1.219-1.219l4.876-2.438l1.829-1.219
		l5.485-2.438h0.609l6.096-3.047l1.219-0.61l1.829-1.219l1.828-1.828l1.219-0.609h2.438l0.609-0.61h0.609v-0.609v-0.609h0.609V527.2
		l0,0l1.22-0.609l0,0v-0.609v0.609h0.609h0.609h0.609h1.22h2.438v0.609l2.438-1.219h3.657l0.609,0.609c0.609,0,0.609,0,0.609,0.609
		l1.22,1.219v1.22l1.219,1.219v1.219v1.219l-1.828,1.829l-2.438,1.828h-0.609l-3.048-0.609l-3.048-1.828l-1.219,0.609l-0.609,1.828
		l-1.22,1.22l-1.219-1.22v-0.609l-3.657,0.609l-6.095,3.048l-2.438,0.609l-2.438,1.22h-1.219l-4.876,3.047h-1.22l-1.219,1.22h-1.219
		l-2.438,1.219l-4.267,2.438l-0.609,0.609l-0.609-0.609l-3.048,1.219h-0.61l-2.438,1.219l-1.219,1.22l-1.22,0.609l-1.828,1.219
		c0,0,0,0.609-0.609,0.609l-3.048,1.829l-1.828,1.219l-1.22,1.219L1586.59,561.333z"/>
	<path fill="#072322" stroke="#000000" stroke-width="0.75" stroke-miterlimit="10" d="M1748.724,576.571v1.219l-0.609,1.22l0,0
		l-0.609,1.219v0.609l-0.61,1.22c0,0.609,0,1.828,0,2.438v1.219l0.61,0.61l0.609,1.219l1.219,0.609l1.22,0.609
		c0.609,0,1.219,0,2.438-0.609l1.829-0.609l0.609-0.609h0.609l7.314-4.267h0.609l1.22-0.609l7.314-4.877h0.609l4.267-3.047
		l0.609-0.61h0.609l1.22-1.219l2.438-1.219l3.048-2.438l0.609-0.609l1.829-1.219l0,0l3.656-3.048H1792l0.61-0.609l0.609-0.609
		l0.609,1.219v0.609l-0.609,0.609l-1.829,1.22l-3.047,1.828l-0.609,0.609l-2.438,1.829c-1.828,1.828-4.876,4.267-7.314,6.095
		l-1.828,1.829h-0.61l-1.219,0.609l-0.609,0.609h-0.609l-0.609,1.219l-1.22,0.609l-0.609,0.609l-1.219,1.22l-0.61,0.609
		l-1.828,1.219l-0.609,0.609l-1.219,0.61l-1.829,0.609l-0.609,0.609l-1.829,1.219l-3.656,2.438l-0.609,0.609l-1.22,1.219
		l-0.609,0.609h-0.609l-0.61,0.61l-1.828,0.609l-1.219,0.609h-1.829c-1.219,0.609-1.828,0.609-2.438,0.609c-0.61,0-1.22,0-1.829,0
		h-1.219l-1.219-0.609l-0.609-0.609l0,0l-1.22-1.829l0,0l-0.609-1.219v-4.267v-3.657v-1.219v-1.829v-0.609l1.219-0.609l0.61-0.609
		l0.609-1.22v-0.609l1.219-1.219l0.609-0.609l0.609-0.609l0.609-2.438l1.22-3.048c0.609-3.047,2.438-6.704,3.657-9.752l0.609-3.657
		c1.219-2.438,2.438-4.267,2.438-7.314v-0.609v-1.219l-1.22-1.22c-1.219,0-3.657,0.61-5.485,1.829l-3.048,1.828l-1.219,0.609
		l-2.438,1.22l-1.828,1.219l-0.609,0.609l-1.829,0.609l-1.219,1.22l-4.267,1.828l-1.22,0.609c-1.219,0.609-1.828,1.22-2.438,1.22
		l-0.609,0.609l-10.972,6.095l-1.22,1.219h-0.609l-0.609,1.22l-0.609,0.609l-1.219,1.828l-1.829,0.61l-3.657,3.047l-6.705,5.486
		l-5.485,4.876l-4.876,3.657l-1.219,0.609l-1.22,0.609l-1.219,1.219v0.61l-1.22-0.61l-3.656,1.829l-2.438,1.219l-1.829,0.609h-3.656
		l-0.61,0.609h-1.219l-1.22-1.219l-0.609-1.828l0.609-3.048l1.22-3.048l0.609-1.219l1.829-3.048l1.219-1.828l1.219-3.048v-0.609
		l0.609-1.22l0.61-1.828v-1.828l0.609-2.438l1.828-3.048l0.61-3.048l0.609-1.219l1.219-1.828l1.219-1.829l0.609-1.219l0.61-1.219
		l3.657-4.268l1.828-3.656v-0.61l0,0v-0.609h0.609l2.438-3.657l0.609-0.609l0.609-0.609l0,0l3.048-4.876l0.609-1.219l1.219-1.22
		l1.22-1.828l0.609-1.829l0.609-1.219l2.438-2.438c1.219-1.828,1.828-3.656,3.657-4.876l3.657-6.095l1.219-1.22
		c3.657-5.485,7.924-10.971,11.581-16.457l0.609-0.609l0.61-0.609l0.609-1.828l1.828-1.22l1.219-1.828l0.609-1.22V488.8l0.61-0.609
		l1.828-1.828l1.22-1.22l0.609-1.219l1.828-3.657l1.219-1.828l1.22-1.829l1.219-1.828l1.829-3.657v-0.609l0.609-1.22l0.609-0.609
		v-0.609l2.438-4.267l0,0l0,0l0.609-1.219l0.609-0.61h0.609v-0.609l1.22-1.828l1.219-1.829l0.609-1.219h0.61v0.609l0,0l0,0
		l0.609-1.219v-0.609l1.219-1.22l0.609-1.219l0.609-0.609l0.61-0.609l2.438-3.048l1.22-1.828l0.609-1.829l0.609-0.609l0.609-1.219
		l0.609-0.609v-1.22v-0.609l1.829-0.609l2.438-1.828l1.22-1.829l3.047-2.438l1.22-1.828l0.609-1.219v-0.609l0.609-0.61v1.22
		l1.829-1.829l1.828-0.609l1.828,1.829l0.609,3.047l-3.047,7.924l-4.876,6.705l-1.829,1.828l-4.876,4.267l-2.438,1.829l-9.143,12.8
		l0,0l-1.219,1.829l-1.219,2.438l-1.22,1.829l-1.219,1.219l-1.829,1.828l-8.533,10.972v0.609l-1.828,3.048l-0.609,1.219l-1.22,0.61
		l-1.219,1.828l-1.829,3.048l-4.875,6.095v1.22l-3.048,3.047l-1.829,2.438l-0.609,1.219l-3.048,4.267l-1.828,3.657l-1.829,1.22
		l-9.752,14.628c-1.828,3.048-3.657,6.096-6.096,9.144v0.609l-0.609,0.609l-0.609,0.609c-1.828,3.048-4.267,6.095-6.095,9.752v0.609
		h-0.61l-1.828,3.657v1.829l-1.828,4.267l-1.22,3.657l-2.438,5.485l-1.22,3.657l-0.609,1.829l-1.219,3.047l-0.609,3.048l0.609,1.219
		l0.609,0.61h1.219l3.048-1.22l1.22-1.219h0.609l0.609-0.609l1.219-0.609l0.609-1.22l1.22-1.219l1.827-4.876l2.438-1.219l0.609-0.61
		l1.828-1.219l6.705-4.267l1.828-1.219l0.61-0.609l1.219-1.22l0.609-0.609l3.048-1.219l6.704-4.876l0.61-0.609l1.828-1.829
		l3.657-1.828l2.438-1.829h0.609c2.438-1.828,4.876-3.048,6.704-4.876l3.048-3.048l1.829-1.219l0.609-0.609h1.219l0.609-0.609
		l1.829-1.22l1.828-0.609l4.876-1.219h0.609c3.658-1.22,7.314-1.22,10.972,0.609c0.61,0,0.61,0.609,0.61,0.609l1.219,0.609
		l1.828,1.22l0.609,1.219v1.828l-1.219,3.048l0,0c-1.828,3.048-3.048,6.705-4.267,9.753c-0.609,2.438-1.829,4.267-3.048,6.704v1.829
		l-1.828,3.047L1748.724,576.571z"/>
</g>
</svg>
