<?xml version="1.0" encoding="utf-8"?>
<!-- Generator: Adobe Illustrator 16.0.0, SVG Export Plug-In . SVG Version: 6.00 Build 0)  -->
<!DOCTYPE svg PUBLIC "-//W3C//DTD SVG 1.1//EN" "http://www.w3.org/Graphics/SVG/1.1/DTD/svg11.dtd" [
	<!ENTITY ns_flows "http://ns.adobe.com/Flows/1.0/">
	<!ENTITY ns_extend "http://ns.adobe.com/Extensibility/1.0/">
	<!ENTITY ns_ai "http://ns.adobe.com/AdobeIllustrator/10.0/">
	<!ENTITY ns_graphs "http://ns.adobe.com/Graphs/1.0/">
]>
<svg version="1.1" id="Vrstva_1" xmlns:x="&ns_extend;" xmlns:i="&ns_ai;" xmlns:graph="&ns_graphs;"
	 xmlns="http://www.w3.org/2000/svg" xmlns:xlink="http://www.w3.org/1999/xlink" xmlns:a="http://ns.adobe.com/AdobeSVGViewerExtensions/3.0/"
	 x="0px" y="0px" width="300px" height="300px" viewBox="0 0 300 300" style="enable-background:new 0 0 300 300;"
	 xml:space="preserve">
<path d="M1,1v300h300V1H1z M20.565,20.565c35,0,69.927,0,104.348,0c-34.71,34.71-69.638,69.638-104.348,104.348
	C20.565,90.42,20.565,55.565,20.565,20.565z M281.29,281.362c-34.71,0-69.349,0-104.203,0
	c34.71-34.854,69.348-69.565,103.913-104.275c0.072,0.072,0.217,0.146,0.29,0.218C281.29,211.941,281.29,246.652,281.29,281.362z
	 M278.826,84.188c-0.145,0.145-0.29,0.29-0.436,0.435c-65.506,65.29-130.941,130.58-196.376,195.869
	c-0.652,0.652-1.305,0.942-2.174,0.942c-19.203,0-38.478,0-57.681,0c-0.435,0-0.869,0-1.449,0c0-0.579,0-1.015,0-1.521
	c0-18.913,0-37.898,0-56.812c0-0.942,0.29-1.521,0.942-2.174C88.102,154.479,154.623,88.102,221.29,21.725
	c0.435-0.435,1.159-0.797,1.739-0.797c19.13-0.073,38.333,0,57.463,0c0.218,0,0.508,0,0.942,0.072c0,0.58,0,1.087,0,1.594
	c0,18.478-0.072,36.884,0.073,55.362C281.435,80.565,280.42,82.449,278.826,84.188z"/>
</svg>
