<?xml version="1.0" encoding="utf-8"?>
<!-- Generator: Adobe Illustrator 16.0.0, SVG Export Plug-In . SVG Version: 6.00 Build 0)  -->
<!DOCTYPE svg PUBLIC "-//W3C//DTD SVG 1.1//EN" "http://www.w3.org/Graphics/SVG/1.1/DTD/svg11.dtd">
<svg version="1.1" id="Vrstva_1" xmlns="http://www.w3.org/2000/svg" xmlns:xlink="http://www.w3.org/1999/xlink" x="0px" y="0px"
	 width="1014.102px" height="960.096px" viewBox="464.27 74.273 1014.102 960.096"
	 enable-background="new 464.27 74.273 1014.102 960.096" xml:space="preserve">
<g>
	<polygon stroke="#000000" stroke-miterlimit="10" points="1017.541,229.058 1088.36,90.738 941.188,90.738 1014.222,234.59 	"/>
	<path stroke="#000000" stroke-miterlimit="10" d="M1462.377,627.418c-30.983-139.426-154.918-242.336-297.664-248.976
		c-128.36-5.532-241.229,64.181-297.664,169.304L694.426,205.82l-64.18-126.148H475.328l70.819,138.32l294.345,578.73
		c9.959,18.812,19.918,37.623,32.09,55.327c65.287,95.164,158.237,154.918,276.64,168.197
		C1338.442,1042.377,1508.853,833.237,1462.377,627.418z M1116.024,837.664c-100.696,0-182.582-81.886-182.582-182.582
		c0-100.697,81.886-182.582,182.582-182.582c100.697,0,182.582,81.885,182.582,182.582
		C1293.074,763.524,1218.935,844.304,1116.024,837.664z"/>
</g>
</svg>
