<?xml version="1.0" encoding="utf-8"?>
<!-- Generator: Adobe Illustrator 16.0.0, SVG Export Plug-In . SVG Version: 6.00 Build 0)  -->
<!DOCTYPE svg PUBLIC "-//W3C//DTD SVG 1.1//EN" "http://www.w3.org/Graphics/SVG/1.1/DTD/svg11.dtd">
<svg version="1.1" id="Layer_1" xmlns="http://www.w3.org/2000/svg" xmlns:xlink="http://www.w3.org/1999/xlink" x="0px" y="0px"
	 width="299.333px" height="178.353px" viewBox="1202.5 694 299.333 178.353" enable-background="new 1202.5 694 299.333 178.353"
	 xml:space="preserve">
<g>
	<g>
		<path d="M1340.463,700.863l-131.578,131.58c-3.044,3.044-4.723,7.106-4.723,11.437c0,4.331,1.679,8.394,4.723,11.436l9.688,9.692
			c6.313,6.306,16.573,6.306,22.876,0l110.49-110.493l110.613,110.613c3.044,3.044,7.106,4.727,11.436,4.727
			c4.333,0,8.391-1.683,11.439-4.727l9.688-9.688c3.046-3.045,4.723-7.105,4.723-11.438c0-4.331-1.677-8.394-4.723-11.438
			l-131.697-131.7c-3.057-3.052-7.135-4.728-11.472-4.716C1347.593,696.136,1343.517,697.812,1340.463,700.863z"/>
	</g>
</g>
</svg>
