<?xml version="1.0" encoding="utf-8"?>
<!-- Generator: Adobe Illustrator 16.0.0, SVG Export Plug-In . SVG Version: 6.00 Build 0)  -->
<!DOCTYPE svg PUBLIC "-//W3C//DTD SVG 1.1//EN" "http://www.w3.org/Graphics/SVG/1.1/DTD/svg11.dtd">
<svg version="1.1" id="Vrstva_1" xmlns="http://www.w3.org/2000/svg" xmlns:xlink="http://www.w3.org/1999/xlink" x="0px" y="0px"
	 width="1470.147px" height="624.063px" viewBox="221.246 227.288 1470.147 624.063"
	 enable-background="new 221.246 227.288 1470.147 624.063" xml:space="preserve">
<g id="XMLID_55_">
	<rect id="XMLID_80_" x="232.858" y="235.913" width="1454.03" height="607.92"/>
	<path id="XMLID_59_" fill="#FFFFFF" d="M1563.983,482.483c-4.063-11.173-10.157-20.822-18.029-28.694
		c-7.872-8.126-17.775-14.475-29.202-18.791c-11.427-4.57-24.378-6.603-38.852-6.603c-18.538,0-35.551,3.302-51.295,9.649
		c-15.49,6.349-29.203,15.998-40.63,28.188l6.856-31.488l-6.349-1.27c-1.523-0.254-3.301-0.508-5.333-0.762
		c-3.555-0.508-7.617-0.762-12.95-0.762c-13.712,0-26.409,3.047-37.582,8.888c-4.571,2.539-9.396,5.586-13.967,9.396l-4.824,3.809
		l3.809-18.537h-58.405l-16.506,77.704c-0.254-9.903-2.285-20.061-5.84-29.964c-4.063-11.174-10.157-20.823-18.029-28.695
		c-7.872-8.126-17.775-14.474-29.203-18.791c-11.427-4.57-24.377-6.603-38.852-6.603c-18.537,0-35.551,3.302-51.295,9.649
		c-15.744,6.603-29.456,15.998-40.884,28.441c-8.888,9.649-16.251,21.076-22.092,34.281c0-1.016,0-2.286,0-3.302
		c0-21.33-6.095-38.598-18.029-50.787c-12.189-12.442-29.457-18.537-51.803-18.537c-13.459,0-27.171,3.048-40.122,8.888
		c-6.348,2.794-12.442,6.603-18.537,11.174l-4.57,3.555l21.33-99.034h-61.198l-33.773,158.963
		c-0.762-7.11-2.031-13.967-3.555-20.569c-3.048-12.188-8.126-23.361-14.982-32.503c-6.856-9.396-15.744-16.76-26.409-22.347
		c-10.665-5.332-23.362-8.126-37.836-8.126c-16.252,0-30.98,3.556-44.185,10.411c-4.571,2.54-9.142,5.333-13.459,8.38l-4.57,3.302
		l3.047-15.49h-59.929l-24.632,115.54c-0.762-3.809-1.523-7.364-2.539-10.919c-2.793-9.142-7.618-17.268-14.22-24.886
		c-6.603-7.364-15.236-13.712-25.648-19.299c-10.157-5.333-23.107-9.903-38.09-13.459l-36.313-8.126
		c-13.205-2.793-22.601-7.109-27.933-12.696c-5.079-5.333-7.618-12.951-7.618-23.108c0-4.57,1.016-9.142,2.793-13.712
		c1.777-4.317,4.571-8.38,8.888-11.936c4.317-3.555,10.157-6.602,17.775-8.888c7.618-2.285,17.521-3.555,29.203-3.555h0.508
		c0.254,0,1.523,0,3.555,0c40.376,1.016,81.005,16.506,91.163,20.568l11.173-52.818c-8.38-3.809-49.264-21.076-103.605-22.6
		c-1.523,0-3.302,0-5.079,0c-15.235,0-30.726,2.031-46.216,6.094c-15.49,4.063-28.948,10.412-39.868,18.538
		c-11.173,8.634-19.807,19.553-25.901,32.503c-6.094,12.951-9.142,28.188-9.142,45.454c0,21.839,6.856,40.376,20.569,54.851
		c13.458,14.22,34.281,24.123,61.96,29.71l36.313,7.618c13.205,2.793,22.093,7.364,26.917,13.459
		c4.825,6.348,7.11,12.95,7.11,20.061c0,6.856-1.016,13.204-3.047,18.791c-2.031,5.333-5.079,9.903-9.396,13.967
		c-5.333,4.824-10.92,8.126-17.014,9.649c-8.888,2.285-19.046,3.555-29.965,3.555c-36.059,0-75.418-11.935-109.192-23.87
		l-6.856-2.285l-12.189,57.644l5.079,1.777c42.661,14.982,83.037,22.601,120.111,22.601c19.045,0,36.82-2.032,52.818-6.095
		c14.982-3.81,28.44-10.411,40.376-19.553c6.094-4.825,11.427-10.412,15.997-16.76L558.91,750.893h61.199l22.346-104.367
		l2.793,3.047c6.349,6.856,13.205,12.189,20.823,16.252c12.442,6.349,27.425,9.649,44.438,9.649c17.268,0,33.52-4.063,47.993-11.681
		c14.221-7.618,26.917-18.537,37.329-31.742c3.301-4.316,6.348-9.142,9.396-13.966l-10.665,50.787h61.198l28.694-136.617
		c1.27-6.856,4.063-13.204,8.634-19.045c4.824-6.095,10.157-11.427,15.744-15.998c12.95-9.903,25.901-14.729,38.598-14.729
		c8.634,0,14.729,2.286,18.537,6.603c4.063,4.825,6.095,11.681,6.095,20.822c0,2.794-0.254,5.587-0.508,8.38
		c-0.508,3.048-0.762,6.349-1.523,9.904l-29.965,140.172h61.198l19.299-90.401c0.254,12.951,2.539,24.886,6.603,36.059
		c4.57,12.189,11.173,22.854,19.553,31.742c8.38,8.634,19.045,15.744,31.488,20.823c10.411,4.316,24.123,6.348,40.883,6.348
		c15.744,0,34.535-2.031,50.533-5.332l11.428-53.581c-21.839,6.603-41.138,8.126-53.581,8.126c-5.078,0-8.634-0.254-10.157-0.508
		c-12.95-1.016-24.378-6.855-31.996-16.252c-6.094-7.617-10.157-17.267-9.649-27.425c0-0.508,0.254-2.285,0.254-2.285h151.346
		l-19.808,92.687h59.929l28.441-133.062c1.523-7.11,4.316-13.713,8.38-19.046c4.316-5.84,9.649-11.427,15.998-16.506
		c5.84-4.316,11.935-7.363,17.775-8.888c6.094-1.777,11.935-2.539,17.014-2.539c4.57,0,8.379,0.254,10.919,0.508
		c1.27,0.254,2.285,0.254,3.555,0.508c-4.063,7.11-7.618,14.729-10.411,22.854c-6.349,18.029-9.649,38.598-9.649,61.452
		c0,14.221,2.285,27.425,6.603,39.359c4.57,12.189,11.173,22.854,19.553,31.742c8.38,8.634,19.045,15.744,31.742,20.822
		c10.411,4.317,24.123,6.349,40.883,6.349c15.744,0,34.535-2.031,50.533-5.332l11.428-53.581
		c-21.839,6.603-41.138,8.126-53.581,8.126c-5.078,0-8.634-0.254-10.157-0.254c-12.95-1.016-24.377-6.856-31.995-16.506
		c-6.095-7.618-10.158-17.268-9.649-27.425c0-0.508,0.254-2.285,0.254-2.285h152.614l1.777-3.809
		c1.016-2.286,9.649-23.108,10.665-52.819C1570.332,506.607,1568.301,494.419,1563.983,482.483z M761.55,565.267
		c-3.047,11.427-7.364,21.584-12.95,30.218c-5.333,8.634-12.189,15.236-19.807,20.315c-7.618,4.824-16.252,7.364-26.156,7.364
		c-15.235,0-26.154-3.81-33.519-11.936s-10.919-18.791-10.919-32.504c0-3.555,0.254-7.109,0.508-10.919
		c0.254-3.555,1.016-7.364,2.031-11.173l3.555-16.252c1.777-8.38,4.825-16.252,8.888-23.362c4.063-7.109,9.142-13.458,14.982-18.791
		c5.841-5.332,12.188-9.396,19.299-12.442c6.856-2.793,14.475-4.317,22.347-4.317c10.919,0,19.299,3.81,26.155,11.682
		c6.855,8.126,10.411,20.314,10.411,36.566C765.867,541.65,764.344,553.84,761.55,565.267z M1181.558,524.383l-0.254,1.777h-96.241
		c0,0,0.508-2.031,0.762-2.793c4.571-15.744,11.936-27.171,19.808-33.266c10.665-8.126,22.6-11.935,36.313-11.935
		c13.204,0,25.14,3.809,30.979,10.157c6.349,6.856,9.649,16.252,9.649,28.44C1182.574,519.051,1181.812,522.352,1181.558,524.383z
		 M1510.657,523.621l-0.254,1.777h-96.495c0,0,0.508-2.031,0.762-2.793c4.571-15.744,11.936-27.171,20.062-33.266
		c10.665-8.126,22.6-11.935,36.313-11.935c13.204,0,25.14,3.809,30.979,10.157c6.349,6.856,9.649,16.252,9.649,28.44
		C1511.673,518.289,1510.911,521.844,1510.657,523.621z"/>
</g>
</svg>
