<?xml version="1.0" encoding="utf-8"?>
<!-- Generator: Adobe Illustrator 16.0.0, SVG Export Plug-In . SVG Version: 6.00 Build 0)  -->
<!DOCTYPE svg PUBLIC "-//W3C//DTD SVG 1.1//EN" "http://www.w3.org/Graphics/SVG/1.1/DTD/svg11.dtd">
<svg version="1.1" id="Vrstva_1" xmlns="http://www.w3.org/2000/svg" xmlns:xlink="http://www.w3.org/1999/xlink" x="0px" y="0px"
	 width="1470.147px" height="396.04px" viewBox="170.241 383.304 1470.147 396.04"
	 enable-background="new 170.241 383.304 1470.147 396.04" xml:space="preserve">
<g>
	<path d="M1578.773,597.749l-36.889,79.488c-7.466,15.81-12.297,20.64-30.302,24.593c-18.006,3.952-68.069,18.884-68.069,18.884
		c4.392-1.757,23.275-15.371,28.105-23.275c5.271-8.344,17.566-28.984,8.783-59.726l28.545,13.175l4.393-9.223l-18.006-8.344
		c3.074-3.074,6.148-6.148,9.223-9.223l19.762,9.223l4.392-9.223l-16.688-7.466c3.074-3.073,6.148-6.147,8.783-9.222l19.763,9.222
		l4.392-9.222l-16.688-7.905c5.27-5.709,9.661-10.979,13.613-15.81l0,0c4.831-7.026,9.223-13.175,12.297-18.444
		c6.587-10.54,17.127-15.371,30.74-14.932c5.709,0,10.979,1.317,14.932,2.635L1578.773,597.749L1578.773,597.749z"/>
	<path d="M1444.831,726.862c1.756-1.757,31.619-8.345,31.619-8.345c14.053-2.195,46.551-14.492,50.063,18.006l83.002-179.616
		l6.587,3.074c0.878,0.439,3.513,2.196,1.317,7.026l-90.906,197.183c-3.513-0.439-6.148-2.635-7.465-5.709
		C1498.848,718.957,1444.831,726.862,1444.831,726.862z"/>
</g>
<g>
	<path d="M443.989,710.174c1.317,2.195,0.878,4.831-0.879,6.587c-0.878,0.439-1.756,0.879-2.635,0.879
		c-1.317,0-2.635-0.439-3.513-1.757L326.734,571.839L216.066,715.883c-0.878,1.317-2.196,1.757-3.513,1.757
		c-0.878,0-2.196-0.439-2.635-0.879c-2.196-1.756-2.635-4.392-0.878-6.587l111.985-145.801L208.6,418.572
		c-1.756-2.195-1.317-4.83,0.878-6.587c1.757-1.317,4.392-1.317,6.148,0.878l110.668,144.044l110.229-144.044
		c1.317-2.195,4.392-2.195,6.148-0.878c1.756,1.757,2.195,4.392,0.878,6.587L331.564,564.373L443.989,710.174z"/>
	<path d="M539.286,717.2c-30.741,0-56.651-14.492-67.63-38.206c-3.074-6.588,0-14.493,6.587-18.006
		c6.588-3.074,14.492,0,17.566,6.587c4.831,11.419,19.323,22.837,43.477,22.837c30.302,0,46.551-19.763,46.551-38.207
		c0-24.593-14.931-30.741-49.625-39.524c-29.423-7.466-65.873-16.688-65.873-59.726c0-15.37,6.587-30.302,18.005-41.72
		c9.223-8.783,25.032-19.323,50.942-19.323c28.984,0,52.699,13.175,62.8,35.572c3.514,6.587,0.439,14.492-6.148,17.566
		c-6.587,3.513-14.492,0.438-18.005-6.148c-4.392-9.662-17.128-20.641-38.646-20.641c-30.741,0-42.159,21.08-42.159,34.693
		c0,20.641,13.175,25.91,46.112,33.815c28.984,7.466,69.826,17.566,69.826,65.435c0,16.249-7.027,32.498-19.323,44.794
		C584.08,706.222,566.953,717.2,539.286,717.2z"/>
	<path d="M819.908,588.088v115.938c0,7.466-5.709,13.175-13.175,13.175c-7.026,0-13.175-5.709-13.175-13.175V588.088
		c0-39.524-27.667-69.826-64.117-69.826c-36.889,0-64.556,29.862-64.556,69.826v2.195c0,0.439,0,0.879,0,1.318v112.863
		c0,7.466-5.709,13.175-13.175,13.175c-7.026,0-13.175-5.709-13.175-13.175V436.578c0-7.466,6.148-13.175,13.175-13.175
		c7.466,0,13.175,5.709,13.175,13.175v82.562c16.249-16.688,38.646-26.788,64.556-26.788
		C780.823,491.912,819.908,533.193,819.908,588.088z"/>
	<path d="M957.805,717.2c-62.361,0-112.864-50.503-112.864-112.863s50.503-112.864,112.864-112.864
		c62.36,0,112.863,50.504,112.863,112.864S1019.726,717.2,957.805,717.2z M957.805,518.262c-47.43,0-86.075,38.646-86.075,86.514
		c0,47.869,38.206,86.075,86.075,86.075c47.868,0,86.074-38.206,86.074-86.074C1043.879,556.907,1005.233,518.262,957.805,518.262z"
		/>
	<path d="M1199.78,717.2c-61.043,0-106.276-48.308-106.276-112.863c0-30.302,10.101-58.408,28.546-79.487
		c19.322-21.52,46.111-33.377,75.974-33.377c59.726,0,102.764,46.99,102.764,112.864c0,7.026-5.709,13.175-13.175,13.175h-166.441
		c5.709,42.159,37.768,72.461,79.488,72.461c28.105,0,52.698-13.175,66.752-37.768c4.392-6.148,12.296-7.905,18.444-3.952
		c6.148,3.952,8.344,12.296,4.392,18.444C1269.606,699.195,1237.109,717.2,1199.78,717.2z M1120.293,591.162h152.388
		c-4.831-43.477-34.254-72.9-75.096-72.9S1126.002,548.563,1120.293,591.162z"/>
	<path d="M1396.084,717.2c-30.741,0-56.651-14.492-67.63-38.206c-3.074-6.588,0-14.493,6.587-18.006
		c6.588-3.074,14.492,0,17.566,6.587c4.831,11.419,19.323,22.837,43.477,22.837c30.302,0,46.551-19.763,46.551-38.207
		c0-24.593-14.932-30.741-49.625-39.524c-29.424-7.466-65.873-16.688-65.873-59.726c0-15.37,6.587-30.302,18.005-41.72
		c9.223-8.783,25.032-19.323,50.942-19.323c28.984,0,52.699,13.175,62.8,35.572c3.513,6.587,0.439,14.492-6.148,17.566
		c-6.587,3.513-14.492,0.438-18.005-6.148c-4.392-9.662-17.127-20.641-38.646-20.641c-30.741,0-42.159,21.08-42.159,34.693
		c0,20.641,13.175,25.91,46.112,33.815c28.984,7.466,69.826,17.566,69.826,65.435c0,16.249-7.027,32.498-19.323,44.794
		C1440.878,706.222,1423.751,717.2,1396.084,717.2z"/>
</g>
</svg>
