<?xml version="1.0" encoding="utf-8"?>
<!-- Generator: Adobe Illustrator 23.0.2, SVG Export Plug-In . SVG Version: 6.00 Build 0)  -->
<svg version="1.1" id="Vrstva_1" xmlns="http://www.w3.org/2000/svg" xmlns:xlink="http://www.w3.org/1999/xlink" x="0px" y="0px"
	 viewBox="0 0 414 414" style="enable-background:new 0 0 414 414;" xml:space="preserve">
<style type="text/css">
	.st0{fill:#FFFFFF;}
</style>
<path class="st0" d="M0,0v414h414V0H0z M27,27c48.3,0,96.5,0,144,0c-47.9,47.9-96.1,96.1-144,144C27,123.4,27,75.3,27,27z
	 M386.8,386.9c-47.9,0-95.7,0-143.8,0c47.9-48.1,95.7-96,143.4-143.9c0.1,0.1,0.3,0.2,0.4,0.3C386.8,291.1,386.8,339,386.8,386.9z
	 M383.4,114.8c-0.2,0.2-0.4,0.4-0.6,0.6c-90.4,90.1-180.7,180.2-271,270.3c-0.9,0.9-1.8,1.3-3,1.3c-26.5,0-53.1,0-79.6,0
	c-0.6,0-1.2,0-2,0c0-0.8,0-1.4,0-2.1c0-26.1,0-52.3,0-78.4c0-1.3,0.4-2.1,1.3-3C120.2,211.8,212,120.2,304,28.6
	c0.6-0.6,1.6-1.1,2.4-1.1c26.4-0.1,52.9,0,79.3,0c0.3,0,0.7,0,1.3,0.1c0,0.8,0,1.5,0,2.2c0,25.5-0.1,50.9,0.1,76.4
	C387,109.8,385.6,112.4,383.4,114.8z"/>
</svg>
