<?xml version="1.0" encoding="utf-8"?>
<!-- Generator: Adobe Illustrator 16.0.0, SVG Export Plug-In . SVG Version: 6.00 Build 0)  -->
<!DOCTYPE svg PUBLIC "-//W3C//DTD SVG 1.1//EN" "http://www.w3.org/Graphics/SVG/1.1/DTD/svg11.dtd" [
	<!ENTITY ns_flows "http://ns.adobe.com/Flows/1.0/">
	<!ENTITY ns_extend "http://ns.adobe.com/Extensibility/1.0/">
	<!ENTITY ns_ai "http://ns.adobe.com/AdobeIllustrator/10.0/">
	<!ENTITY ns_graphs "http://ns.adobe.com/Graphs/1.0/">
]>
<svg version="1.1" id="Layer_1" xmlns:x="&ns_extend;" xmlns:i="&ns_ai;" xmlns:graph="&ns_graphs;"
	 xmlns="http://www.w3.org/2000/svg" xmlns:xlink="http://www.w3.org/1999/xlink" xmlns:a="http://ns.adobe.com/AdobeSVGViewerExtensions/3.0/"
	 x="0px" y="0px" width="300px" height="300px" viewBox="0 0 300 300" style="enable-background:new 0 0 300 300;"
	 xml:space="preserve">
<rect y="0.019" width="301" height="301.962"/>
<g>
	<path style="fill:#FFFFFF;" d="M47.206,253.331c0-0.476,0-0.792,0-1.109c0-15.45,0-30.9,0-46.272c0-0.633,0.158-1.029,0.634-1.505
		c16.322-16.243,32.565-32.564,48.887-48.887c26.464-26.385,52.928-52.77,79.471-79.233c5.784-5.784,11.489-11.489,17.273-17.273
		c3.882-3.882,7.765-7.844,11.647-11.806c0.316-0.317,0.792-0.555,1.188-0.555c15.688,0,31.377,0,47.065,0c0.157,0,0.315,0,0.634,0
		c0,0.317,0,0.634,0,1.03c0,8.874-0.079,17.669-0.079,26.543c0,3.961,0.079,7.923,0.158,11.885c0.079,2.694-0.158,5.388-1.506,7.844
		c-0.396,0.633-0.792,1.268-1.348,1.822C198.938,148.11,146.644,200.403,94.429,252.697c-0.476,0.475-1.03,0.713-1.743,0.713
		c-14.738,0-29.396,0-44.133,0C48.077,253.331,47.682,253.331,47.206,253.331z"/>
	<path style="fill:#FFFFFF;" d="M253.371,171.641c0,27.179,0,54.354,0,81.611c-27.493,0-54.908,0-82.402,0
		c27.414-27.335,54.749-54.592,82.085-81.849C253.212,171.483,253.291,171.562,253.371,171.641z"/>
	<path style="fill:#FFFFFF;" d="M47.285,46.771c27.019,0,54.037,0,80.897,0c-26.939,26.939-53.958,53.958-80.897,80.896
		C47.285,100.807,47.285,73.789,47.285,46.771z"/>
</g>
<g>
</g>
<g>
</g>
<g>
</g>
<g>
</g>
<g>
</g>
<g>
</g>
</svg>
