<?xml version="1.0" encoding="utf-8"?>
<!-- Generator: Adobe Illustrator 23.0.2, SVG Export Plug-In . SVG Version: 6.00 Build 0)  -->
<svg version="1.1" id="Vrstva_1" xmlns="http://www.w3.org/2000/svg" xmlns:xlink="http://www.w3.org/1999/xlink" x="0px" y="0px"
	 viewBox="0 0 310 317" style="enable-background:new 0 0 310 317;" xml:space="preserve">
<style type="text/css">
	.st0{fill:#FFFFFF;}
</style>
<g>
	<path class="st0" d="M28.3,296.3c0-0.6,0-1,0-1.4c0-19.5,0-39,0-58.4c0-0.8,0.2-1.3,0.8-1.9c20.6-20.5,41.1-41.1,61.7-61.7
		c33.4-33.3,66.8-66.6,100.3-100c7.3-7.3,14.5-14.5,21.8-21.8c4.9-4.9,9.8-9.9,14.7-14.9c0.4-0.4,1-0.7,1.5-0.7
		c19.8,0,39.6,0,59.4,0c0.2,0,0.4,0,0.8,0c0,0.4,0,0.8,0,1.3c0,11.2-0.1,22.3-0.1,33.5c0,5,0.1,10,0.2,15c0.1,3.4-0.2,6.8-1.9,9.9
		c-0.5,0.8-1,1.6-1.7,2.3c-66,66-132,132-197.9,198c-0.6,0.6-1.3,0.9-2.2,0.9c-18.6,0-37.1,0-55.7,0
		C29.4,296.3,28.9,296.3,28.3,296.3z"/>
	<path class="st0" d="M288.5,193.2c0,34.3,0,68.6,0,103c-34.7,0-69.3,0-104,0c34.6-34.5,69.1-68.9,103.6-103.3
		C288.3,193,288.4,193.1,288.5,193.2z"/>
	<path class="st0" d="M28.4,35.6c34.1,0,68.2,0,102.1,0c-34,34-68.1,68.1-102.1,102.1C28.4,103.8,28.4,69.7,28.4,35.6z"/>
</g>
</svg>
