<?xml version="1.0" standalone="no"?>
<!DOCTYPE svg PUBLIC "-//W3C//DTD SVG 20010904//EN"
 "http://www.w3.org/TR/2001/REC-SVG-20010904/DTD/svg10.dtd">
<svg version="1.0" xmlns="http://www.w3.org/2000/svg"
 width="700.000000pt" height="700.000000pt" viewBox="0 0 700.000000 700.000000"
 preserveAspectRatio="xMidYMid meet">
<metadata>
Created by potrace 1.11, written by Peter Selinger 2001-2013
</metadata>
<g transform="translate(0.000000,700.000000) scale(0.100000,-0.100000)"
fill="#000000" stroke="none">
<path d="M26 6971 c-2 -3 -3 -1572 -2 -3486 l1 -3480 3488 -3 3487 -2 0 3488
0 3489 -3485 0 c-1917 0 -3487 -3 -3489 -6z m2871 -453 c7 -2 -534 -550 -1202
-1218 l-1215 -1215 0 1217 0 1217 123 3 c149 4 2277 -1 2294 -4z m3519 -8
l150 0 0 -692 c-1 -630 -3 -696 -18 -724 -21 -39 -4607 -4620 -4653 -4649 -15
-10 -178 -12 -715 -11 l-695 1 -1 695 0 694 1292 1291 c711 709 1766 1763
2345 2340 l1052 1050 381 5 c210 3 455 4 546 3 91 -1 233 -3 316 -3z m148
-4860 c1 -800 -2 -1210 -9 -1211 -41 -6 -2414 -2 -2412 3 4 13 2412 2425 2416
2421 3 -2 5 -548 5 -1213z"/>
</g>
</svg>
